G04 #@! TF.GenerationSoftware,KiCad,Pcbnew,(5.1.10-1-10_14)*
G04 #@! TF.CreationDate,2021-10-15T12:17:32-04:00*
G04 #@! TF.ProjectId,Multimeter,4d756c74-696d-4657-9465-722e6b696361,rev?*
G04 #@! TF.SameCoordinates,Original*
G04 #@! TF.FileFunction,Soldermask,Bot*
G04 #@! TF.FilePolarity,Negative*
%FSLAX46Y46*%
G04 Gerber Fmt 4.6, Leading zero omitted, Abs format (unit mm)*
G04 Created by KiCad (PCBNEW (5.1.10-1-10_14)) date 2021-10-15 12:17:32*
%MOMM*%
%LPD*%
G01*
G04 APERTURE LIST*
%ADD10C,6.400000*%
%ADD11C,3.200000*%
%ADD12R,0.900000X1.200000*%
%ADD13R,0.635000X0.381000*%
%ADD14R,0.381000X0.635000*%
%ADD15R,2.000000X0.650000*%
%ADD16O,1.700000X1.700000*%
%ADD17R,1.700000X1.700000*%
%ADD18R,10.800000X9.400000*%
%ADD19R,1.100000X4.600000*%
%ADD20C,5.600000*%
%ADD21R,1.000000X1.000000*%
%ADD22C,1.800000*%
%ADD23R,1.800000X1.800000*%
%ADD24R,0.900000X0.800000*%
%ADD25C,0.900000*%
%ADD26C,10.600000*%
%ADD27R,0.800000X0.900000*%
%ADD28C,1.440000*%
G04 APERTURE END LIST*
D10*
X222000000Y-72000000D03*
D11*
X87000000Y-27000000D03*
X87000000Y-98000000D03*
X233000000Y-98000000D03*
X233000000Y-27000000D03*
D12*
X141000000Y-97000000D03*
X137700000Y-97000000D03*
D10*
X207000000Y-72000000D03*
G36*
G01*
X96855000Y-65261500D02*
X96855000Y-64786500D01*
G75*
G02*
X97092500Y-64549000I237500J0D01*
G01*
X97592500Y-64549000D01*
G75*
G02*
X97830000Y-64786500I0J-237500D01*
G01*
X97830000Y-65261500D01*
G75*
G02*
X97592500Y-65499000I-237500J0D01*
G01*
X97092500Y-65499000D01*
G75*
G02*
X96855000Y-65261500I0J237500D01*
G01*
G37*
G36*
G01*
X95030000Y-65261500D02*
X95030000Y-64786500D01*
G75*
G02*
X95267500Y-64549000I237500J0D01*
G01*
X95767500Y-64549000D01*
G75*
G02*
X96005000Y-64786500I0J-237500D01*
G01*
X96005000Y-65261500D01*
G75*
G02*
X95767500Y-65499000I-237500J0D01*
G01*
X95267500Y-65499000D01*
G75*
G02*
X95030000Y-65261500I0J237500D01*
G01*
G37*
D13*
X204862600Y-29948979D03*
X204862600Y-29298993D03*
X204862600Y-28649007D03*
X204862600Y-27999021D03*
X202881400Y-27999021D03*
X202881400Y-28649007D03*
X202881400Y-29298993D03*
X202881400Y-29948979D03*
D14*
X196801021Y-37584600D03*
X197451007Y-37584600D03*
X198100993Y-37584600D03*
X198750979Y-37584600D03*
X198750979Y-35603400D03*
X198100993Y-35603400D03*
X197451007Y-35603400D03*
X196801021Y-35603400D03*
D15*
X122016000Y-39576000D03*
X122016000Y-38626000D03*
X122016000Y-37676000D03*
X118596000Y-37676000D03*
X118596000Y-38626000D03*
X118596000Y-39576000D03*
G36*
G01*
X223708000Y-27427000D02*
X223708000Y-27727000D01*
G75*
G02*
X223558000Y-27877000I-150000J0D01*
G01*
X221908000Y-27877000D01*
G75*
G02*
X221758000Y-27727000I0J150000D01*
G01*
X221758000Y-27427000D01*
G75*
G02*
X221908000Y-27277000I150000J0D01*
G01*
X223558000Y-27277000D01*
G75*
G02*
X223708000Y-27427000I0J-150000D01*
G01*
G37*
G36*
G01*
X223708000Y-28697000D02*
X223708000Y-28997000D01*
G75*
G02*
X223558000Y-29147000I-150000J0D01*
G01*
X221908000Y-29147000D01*
G75*
G02*
X221758000Y-28997000I0J150000D01*
G01*
X221758000Y-28697000D01*
G75*
G02*
X221908000Y-28547000I150000J0D01*
G01*
X223558000Y-28547000D01*
G75*
G02*
X223708000Y-28697000I0J-150000D01*
G01*
G37*
G36*
G01*
X223708000Y-29967000D02*
X223708000Y-30267000D01*
G75*
G02*
X223558000Y-30417000I-150000J0D01*
G01*
X221908000Y-30417000D01*
G75*
G02*
X221758000Y-30267000I0J150000D01*
G01*
X221758000Y-29967000D01*
G75*
G02*
X221908000Y-29817000I150000J0D01*
G01*
X223558000Y-29817000D01*
G75*
G02*
X223708000Y-29967000I0J-150000D01*
G01*
G37*
G36*
G01*
X223708000Y-31237000D02*
X223708000Y-31537000D01*
G75*
G02*
X223558000Y-31687000I-150000J0D01*
G01*
X221908000Y-31687000D01*
G75*
G02*
X221758000Y-31537000I0J150000D01*
G01*
X221758000Y-31237000D01*
G75*
G02*
X221908000Y-31087000I150000J0D01*
G01*
X223558000Y-31087000D01*
G75*
G02*
X223708000Y-31237000I0J-150000D01*
G01*
G37*
G36*
G01*
X228658000Y-31237000D02*
X228658000Y-31537000D01*
G75*
G02*
X228508000Y-31687000I-150000J0D01*
G01*
X226858000Y-31687000D01*
G75*
G02*
X226708000Y-31537000I0J150000D01*
G01*
X226708000Y-31237000D01*
G75*
G02*
X226858000Y-31087000I150000J0D01*
G01*
X228508000Y-31087000D01*
G75*
G02*
X228658000Y-31237000I0J-150000D01*
G01*
G37*
G36*
G01*
X228658000Y-29967000D02*
X228658000Y-30267000D01*
G75*
G02*
X228508000Y-30417000I-150000J0D01*
G01*
X226858000Y-30417000D01*
G75*
G02*
X226708000Y-30267000I0J150000D01*
G01*
X226708000Y-29967000D01*
G75*
G02*
X226858000Y-29817000I150000J0D01*
G01*
X228508000Y-29817000D01*
G75*
G02*
X228658000Y-29967000I0J-150000D01*
G01*
G37*
G36*
G01*
X228658000Y-28697000D02*
X228658000Y-28997000D01*
G75*
G02*
X228508000Y-29147000I-150000J0D01*
G01*
X226858000Y-29147000D01*
G75*
G02*
X226708000Y-28997000I0J150000D01*
G01*
X226708000Y-28697000D01*
G75*
G02*
X226858000Y-28547000I150000J0D01*
G01*
X228508000Y-28547000D01*
G75*
G02*
X228658000Y-28697000I0J-150000D01*
G01*
G37*
G36*
G01*
X228658000Y-27427000D02*
X228658000Y-27727000D01*
G75*
G02*
X228508000Y-27877000I-150000J0D01*
G01*
X226858000Y-27877000D01*
G75*
G02*
X226708000Y-27727000I0J150000D01*
G01*
X226708000Y-27427000D01*
G75*
G02*
X226858000Y-27277000I150000J0D01*
G01*
X228508000Y-27277000D01*
G75*
G02*
X228658000Y-27427000I0J-150000D01*
G01*
G37*
D16*
X193458000Y-30244000D03*
D17*
X193458000Y-27704000D03*
D15*
X93568000Y-44656000D03*
X93568000Y-43706000D03*
X93568000Y-42756000D03*
X90148000Y-42756000D03*
X90148000Y-43706000D03*
X90148000Y-44656000D03*
G36*
G01*
X88031500Y-43431500D02*
X87556500Y-43431500D01*
G75*
G02*
X87319000Y-43194000I0J237500D01*
G01*
X87319000Y-42694000D01*
G75*
G02*
X87556500Y-42456500I237500J0D01*
G01*
X88031500Y-42456500D01*
G75*
G02*
X88269000Y-42694000I0J-237500D01*
G01*
X88269000Y-43194000D01*
G75*
G02*
X88031500Y-43431500I-237500J0D01*
G01*
G37*
G36*
G01*
X88031500Y-45256500D02*
X87556500Y-45256500D01*
G75*
G02*
X87319000Y-45019000I0J237500D01*
G01*
X87319000Y-44519000D01*
G75*
G02*
X87556500Y-44281500I237500J0D01*
G01*
X88031500Y-44281500D01*
G75*
G02*
X88269000Y-44519000I0J-237500D01*
G01*
X88269000Y-45019000D01*
G75*
G02*
X88031500Y-45256500I-237500J0D01*
G01*
G37*
D16*
X126910000Y-88156000D03*
X124370000Y-88156000D03*
X121830000Y-88156000D03*
X119290000Y-88156000D03*
D17*
X116750000Y-88156000D03*
G36*
G01*
X183205000Y-27137000D02*
X183205000Y-27337000D01*
G75*
G02*
X183105000Y-27437000I-100000J0D01*
G01*
X181830000Y-27437000D01*
G75*
G02*
X181730000Y-27337000I0J100000D01*
G01*
X181730000Y-27137000D01*
G75*
G02*
X181830000Y-27037000I100000J0D01*
G01*
X183105000Y-27037000D01*
G75*
G02*
X183205000Y-27137000I0J-100000D01*
G01*
G37*
G36*
G01*
X183205000Y-27787000D02*
X183205000Y-27987000D01*
G75*
G02*
X183105000Y-28087000I-100000J0D01*
G01*
X181830000Y-28087000D01*
G75*
G02*
X181730000Y-27987000I0J100000D01*
G01*
X181730000Y-27787000D01*
G75*
G02*
X181830000Y-27687000I100000J0D01*
G01*
X183105000Y-27687000D01*
G75*
G02*
X183205000Y-27787000I0J-100000D01*
G01*
G37*
G36*
G01*
X183205000Y-28437000D02*
X183205000Y-28637000D01*
G75*
G02*
X183105000Y-28737000I-100000J0D01*
G01*
X181830000Y-28737000D01*
G75*
G02*
X181730000Y-28637000I0J100000D01*
G01*
X181730000Y-28437000D01*
G75*
G02*
X181830000Y-28337000I100000J0D01*
G01*
X183105000Y-28337000D01*
G75*
G02*
X183205000Y-28437000I0J-100000D01*
G01*
G37*
G36*
G01*
X183205000Y-29087000D02*
X183205000Y-29287000D01*
G75*
G02*
X183105000Y-29387000I-100000J0D01*
G01*
X181830000Y-29387000D01*
G75*
G02*
X181730000Y-29287000I0J100000D01*
G01*
X181730000Y-29087000D01*
G75*
G02*
X181830000Y-28987000I100000J0D01*
G01*
X183105000Y-28987000D01*
G75*
G02*
X183205000Y-29087000I0J-100000D01*
G01*
G37*
G36*
G01*
X188930000Y-29087000D02*
X188930000Y-29287000D01*
G75*
G02*
X188830000Y-29387000I-100000J0D01*
G01*
X187555000Y-29387000D01*
G75*
G02*
X187455000Y-29287000I0J100000D01*
G01*
X187455000Y-29087000D01*
G75*
G02*
X187555000Y-28987000I100000J0D01*
G01*
X188830000Y-28987000D01*
G75*
G02*
X188930000Y-29087000I0J-100000D01*
G01*
G37*
G36*
G01*
X188930000Y-28437000D02*
X188930000Y-28637000D01*
G75*
G02*
X188830000Y-28737000I-100000J0D01*
G01*
X187555000Y-28737000D01*
G75*
G02*
X187455000Y-28637000I0J100000D01*
G01*
X187455000Y-28437000D01*
G75*
G02*
X187555000Y-28337000I100000J0D01*
G01*
X188830000Y-28337000D01*
G75*
G02*
X188930000Y-28437000I0J-100000D01*
G01*
G37*
G36*
G01*
X188930000Y-27787000D02*
X188930000Y-27987000D01*
G75*
G02*
X188830000Y-28087000I-100000J0D01*
G01*
X187555000Y-28087000D01*
G75*
G02*
X187455000Y-27987000I0J100000D01*
G01*
X187455000Y-27787000D01*
G75*
G02*
X187555000Y-27687000I100000J0D01*
G01*
X188830000Y-27687000D01*
G75*
G02*
X188930000Y-27787000I0J-100000D01*
G01*
G37*
G36*
G01*
X188930000Y-27137000D02*
X188930000Y-27337000D01*
G75*
G02*
X188830000Y-27437000I-100000J0D01*
G01*
X187555000Y-27437000D01*
G75*
G02*
X187455000Y-27337000I0J100000D01*
G01*
X187455000Y-27137000D01*
G75*
G02*
X187555000Y-27037000I100000J0D01*
G01*
X188830000Y-27037000D01*
G75*
G02*
X188930000Y-27137000I0J-100000D01*
G01*
G37*
D18*
X191426000Y-52669000D03*
D19*
X193966000Y-43519000D03*
X188886000Y-43519000D03*
G36*
G01*
X190647500Y-27887000D02*
X190172500Y-27887000D01*
G75*
G02*
X189935000Y-27649500I0J237500D01*
G01*
X189935000Y-27049500D01*
G75*
G02*
X190172500Y-26812000I237500J0D01*
G01*
X190647500Y-26812000D01*
G75*
G02*
X190885000Y-27049500I0J-237500D01*
G01*
X190885000Y-27649500D01*
G75*
G02*
X190647500Y-27887000I-237500J0D01*
G01*
G37*
G36*
G01*
X190647500Y-29612000D02*
X190172500Y-29612000D01*
G75*
G02*
X189935000Y-29374500I0J237500D01*
G01*
X189935000Y-28774500D01*
G75*
G02*
X190172500Y-28537000I237500J0D01*
G01*
X190647500Y-28537000D01*
G75*
G02*
X190885000Y-28774500I0J-237500D01*
G01*
X190885000Y-29374500D01*
G75*
G02*
X190647500Y-29612000I-237500J0D01*
G01*
G37*
D16*
X130720000Y-88156000D03*
D17*
X130720000Y-85616000D03*
D12*
X151928000Y-92474000D03*
X148628000Y-92474000D03*
D20*
X187000000Y-75000000D03*
X123000000Y-75000000D03*
D16*
X117004000Y-55644000D03*
D17*
X117004000Y-53104000D03*
G36*
G01*
X88031500Y-39979000D02*
X87556500Y-39979000D01*
G75*
G02*
X87319000Y-39741500I0J237500D01*
G01*
X87319000Y-39241500D01*
G75*
G02*
X87556500Y-39004000I237500J0D01*
G01*
X88031500Y-39004000D01*
G75*
G02*
X88269000Y-39241500I0J-237500D01*
G01*
X88269000Y-39741500D01*
G75*
G02*
X88031500Y-39979000I-237500J0D01*
G01*
G37*
G36*
G01*
X88031500Y-41804000D02*
X87556500Y-41804000D01*
G75*
G02*
X87319000Y-41566500I0J237500D01*
G01*
X87319000Y-41066500D01*
G75*
G02*
X87556500Y-40829000I237500J0D01*
G01*
X88031500Y-40829000D01*
G75*
G02*
X88269000Y-41066500I0J-237500D01*
G01*
X88269000Y-41566500D01*
G75*
G02*
X88031500Y-41804000I-237500J0D01*
G01*
G37*
D15*
X92710000Y-65230000D03*
X92710000Y-64280000D03*
X92710000Y-63330000D03*
X89290000Y-63330000D03*
X89290000Y-64280000D03*
X89290000Y-65230000D03*
G36*
G01*
X121552000Y-35728000D02*
X121552000Y-35428000D01*
G75*
G02*
X121702000Y-35278000I150000J0D01*
G01*
X123352000Y-35278000D01*
G75*
G02*
X123502000Y-35428000I0J-150000D01*
G01*
X123502000Y-35728000D01*
G75*
G02*
X123352000Y-35878000I-150000J0D01*
G01*
X121702000Y-35878000D01*
G75*
G02*
X121552000Y-35728000I0J150000D01*
G01*
G37*
G36*
G01*
X121552000Y-34458000D02*
X121552000Y-34158000D01*
G75*
G02*
X121702000Y-34008000I150000J0D01*
G01*
X123352000Y-34008000D01*
G75*
G02*
X123502000Y-34158000I0J-150000D01*
G01*
X123502000Y-34458000D01*
G75*
G02*
X123352000Y-34608000I-150000J0D01*
G01*
X121702000Y-34608000D01*
G75*
G02*
X121552000Y-34458000I0J150000D01*
G01*
G37*
G36*
G01*
X121552000Y-33188000D02*
X121552000Y-32888000D01*
G75*
G02*
X121702000Y-32738000I150000J0D01*
G01*
X123352000Y-32738000D01*
G75*
G02*
X123502000Y-32888000I0J-150000D01*
G01*
X123502000Y-33188000D01*
G75*
G02*
X123352000Y-33338000I-150000J0D01*
G01*
X121702000Y-33338000D01*
G75*
G02*
X121552000Y-33188000I0J150000D01*
G01*
G37*
G36*
G01*
X121552000Y-31918000D02*
X121552000Y-31618000D01*
G75*
G02*
X121702000Y-31468000I150000J0D01*
G01*
X123352000Y-31468000D01*
G75*
G02*
X123502000Y-31618000I0J-150000D01*
G01*
X123502000Y-31918000D01*
G75*
G02*
X123352000Y-32068000I-150000J0D01*
G01*
X121702000Y-32068000D01*
G75*
G02*
X121552000Y-31918000I0J150000D01*
G01*
G37*
G36*
G01*
X121552000Y-30648000D02*
X121552000Y-30348000D01*
G75*
G02*
X121702000Y-30198000I150000J0D01*
G01*
X123352000Y-30198000D01*
G75*
G02*
X123502000Y-30348000I0J-150000D01*
G01*
X123502000Y-30648000D01*
G75*
G02*
X123352000Y-30798000I-150000J0D01*
G01*
X121702000Y-30798000D01*
G75*
G02*
X121552000Y-30648000I0J150000D01*
G01*
G37*
G36*
G01*
X121552000Y-29378000D02*
X121552000Y-29078000D01*
G75*
G02*
X121702000Y-28928000I150000J0D01*
G01*
X123352000Y-28928000D01*
G75*
G02*
X123502000Y-29078000I0J-150000D01*
G01*
X123502000Y-29378000D01*
G75*
G02*
X123352000Y-29528000I-150000J0D01*
G01*
X121702000Y-29528000D01*
G75*
G02*
X121552000Y-29378000I0J150000D01*
G01*
G37*
G36*
G01*
X121552000Y-28108000D02*
X121552000Y-27808000D01*
G75*
G02*
X121702000Y-27658000I150000J0D01*
G01*
X123352000Y-27658000D01*
G75*
G02*
X123502000Y-27808000I0J-150000D01*
G01*
X123502000Y-28108000D01*
G75*
G02*
X123352000Y-28258000I-150000J0D01*
G01*
X121702000Y-28258000D01*
G75*
G02*
X121552000Y-28108000I0J150000D01*
G01*
G37*
G36*
G01*
X116602000Y-28108000D02*
X116602000Y-27808000D01*
G75*
G02*
X116752000Y-27658000I150000J0D01*
G01*
X118402000Y-27658000D01*
G75*
G02*
X118552000Y-27808000I0J-150000D01*
G01*
X118552000Y-28108000D01*
G75*
G02*
X118402000Y-28258000I-150000J0D01*
G01*
X116752000Y-28258000D01*
G75*
G02*
X116602000Y-28108000I0J150000D01*
G01*
G37*
G36*
G01*
X116602000Y-29378000D02*
X116602000Y-29078000D01*
G75*
G02*
X116752000Y-28928000I150000J0D01*
G01*
X118402000Y-28928000D01*
G75*
G02*
X118552000Y-29078000I0J-150000D01*
G01*
X118552000Y-29378000D01*
G75*
G02*
X118402000Y-29528000I-150000J0D01*
G01*
X116752000Y-29528000D01*
G75*
G02*
X116602000Y-29378000I0J150000D01*
G01*
G37*
G36*
G01*
X116602000Y-30648000D02*
X116602000Y-30348000D01*
G75*
G02*
X116752000Y-30198000I150000J0D01*
G01*
X118402000Y-30198000D01*
G75*
G02*
X118552000Y-30348000I0J-150000D01*
G01*
X118552000Y-30648000D01*
G75*
G02*
X118402000Y-30798000I-150000J0D01*
G01*
X116752000Y-30798000D01*
G75*
G02*
X116602000Y-30648000I0J150000D01*
G01*
G37*
G36*
G01*
X116602000Y-31918000D02*
X116602000Y-31618000D01*
G75*
G02*
X116752000Y-31468000I150000J0D01*
G01*
X118402000Y-31468000D01*
G75*
G02*
X118552000Y-31618000I0J-150000D01*
G01*
X118552000Y-31918000D01*
G75*
G02*
X118402000Y-32068000I-150000J0D01*
G01*
X116752000Y-32068000D01*
G75*
G02*
X116602000Y-31918000I0J150000D01*
G01*
G37*
G36*
G01*
X116602000Y-33188000D02*
X116602000Y-32888000D01*
G75*
G02*
X116752000Y-32738000I150000J0D01*
G01*
X118402000Y-32738000D01*
G75*
G02*
X118552000Y-32888000I0J-150000D01*
G01*
X118552000Y-33188000D01*
G75*
G02*
X118402000Y-33338000I-150000J0D01*
G01*
X116752000Y-33338000D01*
G75*
G02*
X116602000Y-33188000I0J150000D01*
G01*
G37*
G36*
G01*
X116602000Y-34458000D02*
X116602000Y-34158000D01*
G75*
G02*
X116752000Y-34008000I150000J0D01*
G01*
X118402000Y-34008000D01*
G75*
G02*
X118552000Y-34158000I0J-150000D01*
G01*
X118552000Y-34458000D01*
G75*
G02*
X118402000Y-34608000I-150000J0D01*
G01*
X116752000Y-34608000D01*
G75*
G02*
X116602000Y-34458000I0J150000D01*
G01*
G37*
G36*
G01*
X116602000Y-35728000D02*
X116602000Y-35428000D01*
G75*
G02*
X116752000Y-35278000I150000J0D01*
G01*
X118402000Y-35278000D01*
G75*
G02*
X118552000Y-35428000I0J-150000D01*
G01*
X118552000Y-35728000D01*
G75*
G02*
X118402000Y-35878000I-150000J0D01*
G01*
X116752000Y-35878000D01*
G75*
G02*
X116602000Y-35728000I0J150000D01*
G01*
G37*
G36*
G01*
X185921000Y-30514500D02*
X185921000Y-30989500D01*
G75*
G02*
X185683500Y-31227000I-237500J0D01*
G01*
X185183500Y-31227000D01*
G75*
G02*
X184946000Y-30989500I0J237500D01*
G01*
X184946000Y-30514500D01*
G75*
G02*
X185183500Y-30277000I237500J0D01*
G01*
X185683500Y-30277000D01*
G75*
G02*
X185921000Y-30514500I0J-237500D01*
G01*
G37*
G36*
G01*
X187746000Y-30514500D02*
X187746000Y-30989500D01*
G75*
G02*
X187508500Y-31227000I-237500J0D01*
G01*
X187008500Y-31227000D01*
G75*
G02*
X186771000Y-30989500I0J237500D01*
G01*
X186771000Y-30514500D01*
G75*
G02*
X187008500Y-30277000I237500J0D01*
G01*
X187508500Y-30277000D01*
G75*
G02*
X187746000Y-30514500I0J-237500D01*
G01*
G37*
G36*
G01*
X182619000Y-30514500D02*
X182619000Y-30989500D01*
G75*
G02*
X182381500Y-31227000I-237500J0D01*
G01*
X181881500Y-31227000D01*
G75*
G02*
X181644000Y-30989500I0J237500D01*
G01*
X181644000Y-30514500D01*
G75*
G02*
X181881500Y-30277000I237500J0D01*
G01*
X182381500Y-30277000D01*
G75*
G02*
X182619000Y-30514500I0J-237500D01*
G01*
G37*
G36*
G01*
X184444000Y-30514500D02*
X184444000Y-30989500D01*
G75*
G02*
X184206500Y-31227000I-237500J0D01*
G01*
X183706500Y-31227000D01*
G75*
G02*
X183469000Y-30989500I0J237500D01*
G01*
X183469000Y-30514500D01*
G75*
G02*
X183706500Y-30277000I237500J0D01*
G01*
X184206500Y-30277000D01*
G75*
G02*
X184444000Y-30514500I0J-237500D01*
G01*
G37*
G36*
G01*
X191255000Y-38388500D02*
X191255000Y-38863500D01*
G75*
G02*
X191017500Y-39101000I-237500J0D01*
G01*
X190517500Y-39101000D01*
G75*
G02*
X190280000Y-38863500I0J237500D01*
G01*
X190280000Y-38388500D01*
G75*
G02*
X190517500Y-38151000I237500J0D01*
G01*
X191017500Y-38151000D01*
G75*
G02*
X191255000Y-38388500I0J-237500D01*
G01*
G37*
G36*
G01*
X193080000Y-38388500D02*
X193080000Y-38863500D01*
G75*
G02*
X192842500Y-39101000I-237500J0D01*
G01*
X192342500Y-39101000D01*
G75*
G02*
X192105000Y-38863500I0J237500D01*
G01*
X192105000Y-38388500D01*
G75*
G02*
X192342500Y-38151000I237500J0D01*
G01*
X192842500Y-38151000D01*
G75*
G02*
X193080000Y-38388500I0J-237500D01*
G01*
G37*
G36*
G01*
X192105000Y-40387500D02*
X192105000Y-39912500D01*
G75*
G02*
X192342500Y-39675000I237500J0D01*
G01*
X192842500Y-39675000D01*
G75*
G02*
X193080000Y-39912500I0J-237500D01*
G01*
X193080000Y-40387500D01*
G75*
G02*
X192842500Y-40625000I-237500J0D01*
G01*
X192342500Y-40625000D01*
G75*
G02*
X192105000Y-40387500I0J237500D01*
G01*
G37*
G36*
G01*
X190280000Y-40387500D02*
X190280000Y-39912500D01*
G75*
G02*
X190517500Y-39675000I237500J0D01*
G01*
X191017500Y-39675000D01*
G75*
G02*
X191255000Y-39912500I0J-237500D01*
G01*
X191255000Y-40387500D01*
G75*
G02*
X191017500Y-40625000I-237500J0D01*
G01*
X190517500Y-40625000D01*
G75*
G02*
X190280000Y-40387500I0J237500D01*
G01*
G37*
G36*
G01*
X220135000Y-30717500D02*
X220135000Y-30242500D01*
G75*
G02*
X220372500Y-30005000I237500J0D01*
G01*
X220872500Y-30005000D01*
G75*
G02*
X221110000Y-30242500I0J-237500D01*
G01*
X221110000Y-30717500D01*
G75*
G02*
X220872500Y-30955000I-237500J0D01*
G01*
X220372500Y-30955000D01*
G75*
G02*
X220135000Y-30717500I0J237500D01*
G01*
G37*
G36*
G01*
X218310000Y-30717500D02*
X218310000Y-30242500D01*
G75*
G02*
X218547500Y-30005000I237500J0D01*
G01*
X219047500Y-30005000D01*
G75*
G02*
X219285000Y-30242500I0J-237500D01*
G01*
X219285000Y-30717500D01*
G75*
G02*
X219047500Y-30955000I-237500J0D01*
G01*
X218547500Y-30955000D01*
G75*
G02*
X218310000Y-30717500I0J237500D01*
G01*
G37*
G36*
G01*
X220135000Y-29211500D02*
X220135000Y-28736500D01*
G75*
G02*
X220372500Y-28499000I237500J0D01*
G01*
X220872500Y-28499000D01*
G75*
G02*
X221110000Y-28736500I0J-237500D01*
G01*
X221110000Y-29211500D01*
G75*
G02*
X220872500Y-29449000I-237500J0D01*
G01*
X220372500Y-29449000D01*
G75*
G02*
X220135000Y-29211500I0J237500D01*
G01*
G37*
G36*
G01*
X218310000Y-29211500D02*
X218310000Y-28736500D01*
G75*
G02*
X218547500Y-28499000I237500J0D01*
G01*
X219047500Y-28499000D01*
G75*
G02*
X219285000Y-28736500I0J-237500D01*
G01*
X219285000Y-29211500D01*
G75*
G02*
X219047500Y-29449000I-237500J0D01*
G01*
X218547500Y-29449000D01*
G75*
G02*
X218310000Y-29211500I0J237500D01*
G01*
G37*
G36*
G01*
X130482500Y-81723000D02*
X130957500Y-81723000D01*
G75*
G02*
X131195000Y-81960500I0J-237500D01*
G01*
X131195000Y-82460500D01*
G75*
G02*
X130957500Y-82698000I-237500J0D01*
G01*
X130482500Y-82698000D01*
G75*
G02*
X130245000Y-82460500I0J237500D01*
G01*
X130245000Y-81960500D01*
G75*
G02*
X130482500Y-81723000I237500J0D01*
G01*
G37*
G36*
G01*
X130482500Y-79898000D02*
X130957500Y-79898000D01*
G75*
G02*
X131195000Y-80135500I0J-237500D01*
G01*
X131195000Y-80635500D01*
G75*
G02*
X130957500Y-80873000I-237500J0D01*
G01*
X130482500Y-80873000D01*
G75*
G02*
X130245000Y-80635500I0J237500D01*
G01*
X130245000Y-80135500D01*
G75*
G02*
X130482500Y-79898000I237500J0D01*
G01*
G37*
G36*
G01*
X116512500Y-83501000D02*
X116987500Y-83501000D01*
G75*
G02*
X117225000Y-83738500I0J-237500D01*
G01*
X117225000Y-84238500D01*
G75*
G02*
X116987500Y-84476000I-237500J0D01*
G01*
X116512500Y-84476000D01*
G75*
G02*
X116275000Y-84238500I0J237500D01*
G01*
X116275000Y-83738500D01*
G75*
G02*
X116512500Y-83501000I237500J0D01*
G01*
G37*
G36*
G01*
X116512500Y-81676000D02*
X116987500Y-81676000D01*
G75*
G02*
X117225000Y-81913500I0J-237500D01*
G01*
X117225000Y-82413500D01*
G75*
G02*
X116987500Y-82651000I-237500J0D01*
G01*
X116512500Y-82651000D01*
G75*
G02*
X116275000Y-82413500I0J237500D01*
G01*
X116275000Y-81913500D01*
G75*
G02*
X116512500Y-81676000I237500J0D01*
G01*
G37*
G36*
G01*
X119052500Y-83501000D02*
X119527500Y-83501000D01*
G75*
G02*
X119765000Y-83738500I0J-237500D01*
G01*
X119765000Y-84238500D01*
G75*
G02*
X119527500Y-84476000I-237500J0D01*
G01*
X119052500Y-84476000D01*
G75*
G02*
X118815000Y-84238500I0J237500D01*
G01*
X118815000Y-83738500D01*
G75*
G02*
X119052500Y-83501000I237500J0D01*
G01*
G37*
G36*
G01*
X119052500Y-81676000D02*
X119527500Y-81676000D01*
G75*
G02*
X119765000Y-81913500I0J-237500D01*
G01*
X119765000Y-82413500D01*
G75*
G02*
X119527500Y-82651000I-237500J0D01*
G01*
X119052500Y-82651000D01*
G75*
G02*
X118815000Y-82413500I0J237500D01*
G01*
X118815000Y-81913500D01*
G75*
G02*
X119052500Y-81676000I237500J0D01*
G01*
G37*
G36*
G01*
X121592500Y-83501000D02*
X122067500Y-83501000D01*
G75*
G02*
X122305000Y-83738500I0J-237500D01*
G01*
X122305000Y-84238500D01*
G75*
G02*
X122067500Y-84476000I-237500J0D01*
G01*
X121592500Y-84476000D01*
G75*
G02*
X121355000Y-84238500I0J237500D01*
G01*
X121355000Y-83738500D01*
G75*
G02*
X121592500Y-83501000I237500J0D01*
G01*
G37*
G36*
G01*
X121592500Y-81676000D02*
X122067500Y-81676000D01*
G75*
G02*
X122305000Y-81913500I0J-237500D01*
G01*
X122305000Y-82413500D01*
G75*
G02*
X122067500Y-82651000I-237500J0D01*
G01*
X121592500Y-82651000D01*
G75*
G02*
X121355000Y-82413500I0J237500D01*
G01*
X121355000Y-81913500D01*
G75*
G02*
X121592500Y-81676000I237500J0D01*
G01*
G37*
G36*
G01*
X124132500Y-83501000D02*
X124607500Y-83501000D01*
G75*
G02*
X124845000Y-83738500I0J-237500D01*
G01*
X124845000Y-84238500D01*
G75*
G02*
X124607500Y-84476000I-237500J0D01*
G01*
X124132500Y-84476000D01*
G75*
G02*
X123895000Y-84238500I0J237500D01*
G01*
X123895000Y-83738500D01*
G75*
G02*
X124132500Y-83501000I237500J0D01*
G01*
G37*
G36*
G01*
X124132500Y-81676000D02*
X124607500Y-81676000D01*
G75*
G02*
X124845000Y-81913500I0J-237500D01*
G01*
X124845000Y-82413500D01*
G75*
G02*
X124607500Y-82651000I-237500J0D01*
G01*
X124132500Y-82651000D01*
G75*
G02*
X123895000Y-82413500I0J237500D01*
G01*
X123895000Y-81913500D01*
G75*
G02*
X124132500Y-81676000I237500J0D01*
G01*
G37*
G36*
G01*
X126672500Y-83501000D02*
X127147500Y-83501000D01*
G75*
G02*
X127385000Y-83738500I0J-237500D01*
G01*
X127385000Y-84238500D01*
G75*
G02*
X127147500Y-84476000I-237500J0D01*
G01*
X126672500Y-84476000D01*
G75*
G02*
X126435000Y-84238500I0J237500D01*
G01*
X126435000Y-83738500D01*
G75*
G02*
X126672500Y-83501000I237500J0D01*
G01*
G37*
G36*
G01*
X126672500Y-81676000D02*
X127147500Y-81676000D01*
G75*
G02*
X127385000Y-81913500I0J-237500D01*
G01*
X127385000Y-82413500D01*
G75*
G02*
X127147500Y-82651000I-237500J0D01*
G01*
X126672500Y-82651000D01*
G75*
G02*
X126435000Y-82413500I0J237500D01*
G01*
X126435000Y-81913500D01*
G75*
G02*
X126672500Y-81676000I237500J0D01*
G01*
G37*
G36*
G01*
X145789000Y-92236500D02*
X145789000Y-92711500D01*
G75*
G02*
X145551500Y-92949000I-237500J0D01*
G01*
X145051500Y-92949000D01*
G75*
G02*
X144814000Y-92711500I0J237500D01*
G01*
X144814000Y-92236500D01*
G75*
G02*
X145051500Y-91999000I237500J0D01*
G01*
X145551500Y-91999000D01*
G75*
G02*
X145789000Y-92236500I0J-237500D01*
G01*
G37*
G36*
G01*
X147614000Y-92236500D02*
X147614000Y-92711500D01*
G75*
G02*
X147376500Y-92949000I-237500J0D01*
G01*
X146876500Y-92949000D01*
G75*
G02*
X146639000Y-92711500I0J237500D01*
G01*
X146639000Y-92236500D01*
G75*
G02*
X146876500Y-91999000I237500J0D01*
G01*
X147376500Y-91999000D01*
G75*
G02*
X147614000Y-92236500I0J-237500D01*
G01*
G37*
G36*
G01*
X125492500Y-37001000D02*
X125967500Y-37001000D01*
G75*
G02*
X126205000Y-37238500I0J-237500D01*
G01*
X126205000Y-37738500D01*
G75*
G02*
X125967500Y-37976000I-237500J0D01*
G01*
X125492500Y-37976000D01*
G75*
G02*
X125255000Y-37738500I0J237500D01*
G01*
X125255000Y-37238500D01*
G75*
G02*
X125492500Y-37001000I237500J0D01*
G01*
G37*
G36*
G01*
X125492500Y-35176000D02*
X125967500Y-35176000D01*
G75*
G02*
X126205000Y-35413500I0J-237500D01*
G01*
X126205000Y-35913500D01*
G75*
G02*
X125967500Y-36151000I-237500J0D01*
G01*
X125492500Y-36151000D01*
G75*
G02*
X125255000Y-35913500I0J237500D01*
G01*
X125255000Y-35413500D01*
G75*
G02*
X125492500Y-35176000I237500J0D01*
G01*
G37*
G36*
G01*
X123968500Y-39051000D02*
X124443500Y-39051000D01*
G75*
G02*
X124681000Y-39288500I0J-237500D01*
G01*
X124681000Y-39788500D01*
G75*
G02*
X124443500Y-40026000I-237500J0D01*
G01*
X123968500Y-40026000D01*
G75*
G02*
X123731000Y-39788500I0J237500D01*
G01*
X123731000Y-39288500D01*
G75*
G02*
X123968500Y-39051000I237500J0D01*
G01*
G37*
G36*
G01*
X123968500Y-37226000D02*
X124443500Y-37226000D01*
G75*
G02*
X124681000Y-37463500I0J-237500D01*
G01*
X124681000Y-37963500D01*
G75*
G02*
X124443500Y-38201000I-237500J0D01*
G01*
X123968500Y-38201000D01*
G75*
G02*
X123731000Y-37963500I0J237500D01*
G01*
X123731000Y-37463500D01*
G75*
G02*
X123968500Y-37226000I237500J0D01*
G01*
G37*
G36*
G01*
X96691000Y-61705500D02*
X96691000Y-61230500D01*
G75*
G02*
X96928500Y-60993000I237500J0D01*
G01*
X97428500Y-60993000D01*
G75*
G02*
X97666000Y-61230500I0J-237500D01*
G01*
X97666000Y-61705500D01*
G75*
G02*
X97428500Y-61943000I-237500J0D01*
G01*
X96928500Y-61943000D01*
G75*
G02*
X96691000Y-61705500I0J237500D01*
G01*
G37*
G36*
G01*
X94866000Y-61705500D02*
X94866000Y-61230500D01*
G75*
G02*
X95103500Y-60993000I237500J0D01*
G01*
X95603500Y-60993000D01*
G75*
G02*
X95841000Y-61230500I0J-237500D01*
G01*
X95841000Y-61705500D01*
G75*
G02*
X95603500Y-61943000I-237500J0D01*
G01*
X95103500Y-61943000D01*
G75*
G02*
X94866000Y-61705500I0J237500D01*
G01*
G37*
G36*
G01*
X96855000Y-63247500D02*
X96855000Y-62772500D01*
G75*
G02*
X97092500Y-62535000I237500J0D01*
G01*
X97592500Y-62535000D01*
G75*
G02*
X97830000Y-62772500I0J-237500D01*
G01*
X97830000Y-63247500D01*
G75*
G02*
X97592500Y-63485000I-237500J0D01*
G01*
X97092500Y-63485000D01*
G75*
G02*
X96855000Y-63247500I0J237500D01*
G01*
G37*
G36*
G01*
X95030000Y-63247500D02*
X95030000Y-62772500D01*
G75*
G02*
X95267500Y-62535000I237500J0D01*
G01*
X95767500Y-62535000D01*
G75*
G02*
X96005000Y-62772500I0J-237500D01*
G01*
X96005000Y-63247500D01*
G75*
G02*
X95767500Y-63485000I-237500J0D01*
G01*
X95267500Y-63485000D01*
G75*
G02*
X95030000Y-63247500I0J237500D01*
G01*
G37*
X92679000Y-61674000D03*
X92679000Y-60724000D03*
X92679000Y-59774000D03*
X89259000Y-59774000D03*
X89259000Y-60724000D03*
X89259000Y-61674000D03*
X93568000Y-41100000D03*
X93568000Y-40150000D03*
X93568000Y-39200000D03*
X90148000Y-39200000D03*
X90148000Y-40150000D03*
X90148000Y-41100000D03*
D21*
X194290000Y-32512000D03*
X191790000Y-32512000D03*
X195998000Y-27216000D03*
X195998000Y-29716000D03*
X199554000Y-45464000D03*
X199554000Y-42964000D03*
X201586000Y-42964000D03*
X201586000Y-45464000D03*
D22*
X153834000Y-97046000D03*
D23*
X156374000Y-97046000D03*
G36*
G01*
X180487500Y-27887000D02*
X180012500Y-27887000D01*
G75*
G02*
X179775000Y-27649500I0J237500D01*
G01*
X179775000Y-27049500D01*
G75*
G02*
X180012500Y-26812000I237500J0D01*
G01*
X180487500Y-26812000D01*
G75*
G02*
X180725000Y-27049500I0J-237500D01*
G01*
X180725000Y-27649500D01*
G75*
G02*
X180487500Y-27887000I-237500J0D01*
G01*
G37*
G36*
G01*
X180487500Y-29612000D02*
X180012500Y-29612000D01*
G75*
G02*
X179775000Y-29374500I0J237500D01*
G01*
X179775000Y-28774500D01*
G75*
G02*
X180012500Y-28537000I237500J0D01*
G01*
X180487500Y-28537000D01*
G75*
G02*
X180725000Y-28774500I0J-237500D01*
G01*
X180725000Y-29374500D01*
G75*
G02*
X180487500Y-29612000I-237500J0D01*
G01*
G37*
G36*
G01*
X192513000Y-59183500D02*
X192513000Y-58708500D01*
G75*
G02*
X192750500Y-58471000I237500J0D01*
G01*
X193350500Y-58471000D01*
G75*
G02*
X193588000Y-58708500I0J-237500D01*
G01*
X193588000Y-59183500D01*
G75*
G02*
X193350500Y-59421000I-237500J0D01*
G01*
X192750500Y-59421000D01*
G75*
G02*
X192513000Y-59183500I0J237500D01*
G01*
G37*
G36*
G01*
X190788000Y-59183500D02*
X190788000Y-58708500D01*
G75*
G02*
X191025500Y-58471000I237500J0D01*
G01*
X191625500Y-58471000D01*
G75*
G02*
X191863000Y-58708500I0J-237500D01*
G01*
X191863000Y-59183500D01*
G75*
G02*
X191625500Y-59421000I-237500J0D01*
G01*
X191025500Y-59421000D01*
G75*
G02*
X190788000Y-59183500I0J237500D01*
G01*
G37*
G36*
G01*
X189173000Y-32472000D02*
X190123000Y-32472000D01*
G75*
G02*
X190373000Y-32722000I0J-250000D01*
G01*
X190373000Y-33397000D01*
G75*
G02*
X190123000Y-33647000I-250000J0D01*
G01*
X189173000Y-33647000D01*
G75*
G02*
X188923000Y-33397000I0J250000D01*
G01*
X188923000Y-32722000D01*
G75*
G02*
X189173000Y-32472000I250000J0D01*
G01*
G37*
G36*
G01*
X189173000Y-30397000D02*
X190123000Y-30397000D01*
G75*
G02*
X190373000Y-30647000I0J-250000D01*
G01*
X190373000Y-31322000D01*
G75*
G02*
X190123000Y-31572000I-250000J0D01*
G01*
X189173000Y-31572000D01*
G75*
G02*
X188923000Y-31322000I0J250000D01*
G01*
X188923000Y-30647000D01*
G75*
G02*
X189173000Y-30397000I250000J0D01*
G01*
G37*
G36*
G01*
X197485500Y-31989000D02*
X197485500Y-31039000D01*
G75*
G02*
X197735500Y-30789000I250000J0D01*
G01*
X198410500Y-30789000D01*
G75*
G02*
X198660500Y-31039000I0J-250000D01*
G01*
X198660500Y-31989000D01*
G75*
G02*
X198410500Y-32239000I-250000J0D01*
G01*
X197735500Y-32239000D01*
G75*
G02*
X197485500Y-31989000I0J250000D01*
G01*
G37*
G36*
G01*
X195410500Y-31989000D02*
X195410500Y-31039000D01*
G75*
G02*
X195660500Y-30789000I250000J0D01*
G01*
X196335500Y-30789000D01*
G75*
G02*
X196585500Y-31039000I0J-250000D01*
G01*
X196585500Y-31989000D01*
G75*
G02*
X196335500Y-32239000I-250000J0D01*
G01*
X195660500Y-32239000D01*
G75*
G02*
X195410500Y-31989000I0J250000D01*
G01*
G37*
G36*
G01*
X197538500Y-44539000D02*
X198013500Y-44539000D01*
G75*
G02*
X198251000Y-44776500I0J-237500D01*
G01*
X198251000Y-45376500D01*
G75*
G02*
X198013500Y-45614000I-237500J0D01*
G01*
X197538500Y-45614000D01*
G75*
G02*
X197301000Y-45376500I0J237500D01*
G01*
X197301000Y-44776500D01*
G75*
G02*
X197538500Y-44539000I237500J0D01*
G01*
G37*
G36*
G01*
X197538500Y-42814000D02*
X198013500Y-42814000D01*
G75*
G02*
X198251000Y-43051500I0J-237500D01*
G01*
X198251000Y-43651500D01*
G75*
G02*
X198013500Y-43889000I-237500J0D01*
G01*
X197538500Y-43889000D01*
G75*
G02*
X197301000Y-43651500I0J237500D01*
G01*
X197301000Y-43051500D01*
G75*
G02*
X197538500Y-42814000I237500J0D01*
G01*
G37*
G36*
G01*
X198721000Y-40928500D02*
X198721000Y-41403500D01*
G75*
G02*
X198483500Y-41641000I-237500J0D01*
G01*
X197883500Y-41641000D01*
G75*
G02*
X197646000Y-41403500I0J237500D01*
G01*
X197646000Y-40928500D01*
G75*
G02*
X197883500Y-40691000I237500J0D01*
G01*
X198483500Y-40691000D01*
G75*
G02*
X198721000Y-40928500I0J-237500D01*
G01*
G37*
G36*
G01*
X200446000Y-40928500D02*
X200446000Y-41403500D01*
G75*
G02*
X200208500Y-41641000I-237500J0D01*
G01*
X199608500Y-41641000D01*
G75*
G02*
X199371000Y-41403500I0J237500D01*
G01*
X199371000Y-40928500D01*
G75*
G02*
X199608500Y-40691000I237500J0D01*
G01*
X200208500Y-40691000D01*
G75*
G02*
X200446000Y-40928500I0J-237500D01*
G01*
G37*
G36*
G01*
X229632500Y-28519000D02*
X230107500Y-28519000D01*
G75*
G02*
X230345000Y-28756500I0J-237500D01*
G01*
X230345000Y-29356500D01*
G75*
G02*
X230107500Y-29594000I-237500J0D01*
G01*
X229632500Y-29594000D01*
G75*
G02*
X229395000Y-29356500I0J237500D01*
G01*
X229395000Y-28756500D01*
G75*
G02*
X229632500Y-28519000I237500J0D01*
G01*
G37*
G36*
G01*
X229632500Y-26794000D02*
X230107500Y-26794000D01*
G75*
G02*
X230345000Y-27031500I0J-237500D01*
G01*
X230345000Y-27631500D01*
G75*
G02*
X230107500Y-27869000I-237500J0D01*
G01*
X229632500Y-27869000D01*
G75*
G02*
X229395000Y-27631500I0J237500D01*
G01*
X229395000Y-27031500D01*
G75*
G02*
X229632500Y-26794000I237500J0D01*
G01*
G37*
G36*
G01*
X219549000Y-26704500D02*
X219549000Y-27179500D01*
G75*
G02*
X219311500Y-27417000I-237500J0D01*
G01*
X218711500Y-27417000D01*
G75*
G02*
X218474000Y-27179500I0J237500D01*
G01*
X218474000Y-26704500D01*
G75*
G02*
X218711500Y-26467000I237500J0D01*
G01*
X219311500Y-26467000D01*
G75*
G02*
X219549000Y-26704500I0J-237500D01*
G01*
G37*
G36*
G01*
X221274000Y-26704500D02*
X221274000Y-27179500D01*
G75*
G02*
X221036500Y-27417000I-237500J0D01*
G01*
X220436500Y-27417000D01*
G75*
G02*
X220199000Y-27179500I0J237500D01*
G01*
X220199000Y-26704500D01*
G75*
G02*
X220436500Y-26467000I237500J0D01*
G01*
X221036500Y-26467000D01*
G75*
G02*
X221274000Y-26704500I0J-237500D01*
G01*
G37*
G36*
G01*
X124861500Y-29157000D02*
X124386500Y-29157000D01*
G75*
G02*
X124149000Y-28919500I0J237500D01*
G01*
X124149000Y-28319500D01*
G75*
G02*
X124386500Y-28082000I237500J0D01*
G01*
X124861500Y-28082000D01*
G75*
G02*
X125099000Y-28319500I0J-237500D01*
G01*
X125099000Y-28919500D01*
G75*
G02*
X124861500Y-29157000I-237500J0D01*
G01*
G37*
G36*
G01*
X124861500Y-30882000D02*
X124386500Y-30882000D01*
G75*
G02*
X124149000Y-30644500I0J237500D01*
G01*
X124149000Y-30044500D01*
G75*
G02*
X124386500Y-29807000I237500J0D01*
G01*
X124861500Y-29807000D01*
G75*
G02*
X125099000Y-30044500I0J-237500D01*
G01*
X125099000Y-30644500D01*
G75*
G02*
X124861500Y-30882000I-237500J0D01*
G01*
G37*
G36*
G01*
X115332500Y-31821000D02*
X115807500Y-31821000D01*
G75*
G02*
X116045000Y-32058500I0J-237500D01*
G01*
X116045000Y-32658500D01*
G75*
G02*
X115807500Y-32896000I-237500J0D01*
G01*
X115332500Y-32896000D01*
G75*
G02*
X115095000Y-32658500I0J237500D01*
G01*
X115095000Y-32058500D01*
G75*
G02*
X115332500Y-31821000I237500J0D01*
G01*
G37*
G36*
G01*
X115332500Y-30096000D02*
X115807500Y-30096000D01*
G75*
G02*
X116045000Y-30333500I0J-237500D01*
G01*
X116045000Y-30933500D01*
G75*
G02*
X115807500Y-31171000I-237500J0D01*
G01*
X115332500Y-31171000D01*
G75*
G02*
X115095000Y-30933500I0J237500D01*
G01*
X115095000Y-30333500D01*
G75*
G02*
X115332500Y-30096000I237500J0D01*
G01*
G37*
D21*
X193294000Y-88646000D03*
D24*
X97684000Y-32530000D03*
X95684000Y-31580000D03*
X95684000Y-33480000D03*
D22*
X153834000Y-92474000D03*
D23*
X156374000Y-92474000D03*
D25*
X99810749Y-69189251D03*
X97000000Y-68025000D03*
X94189251Y-69189251D03*
X93025000Y-72000000D03*
X94189251Y-74810749D03*
X97000000Y-75975000D03*
X99810749Y-74810749D03*
X100975000Y-72000000D03*
D26*
X97000000Y-72000000D03*
D25*
X99810749Y-49989251D03*
X97000000Y-48825000D03*
X94189251Y-49989251D03*
X93025000Y-52800000D03*
X94189251Y-55610749D03*
X97000000Y-56775000D03*
X99810749Y-55610749D03*
X100975000Y-52800000D03*
D26*
X97000000Y-52800000D03*
D27*
X94078000Y-35054000D03*
X92178000Y-35054000D03*
X93128000Y-33054000D03*
D24*
X88572000Y-34054000D03*
X90572000Y-35004000D03*
X90572000Y-33104000D03*
D27*
X95734000Y-35086000D03*
X97634000Y-35086000D03*
X96684000Y-37086000D03*
D28*
X102000000Y-35000000D03*
X104540000Y-35000000D03*
X107080000Y-35000000D03*
X112000000Y-34080000D03*
X112000000Y-31540000D03*
X112000000Y-29000000D03*
X112000000Y-39000000D03*
X112000000Y-41540000D03*
X112000000Y-44080000D03*
M02*
