M48
; DRILL file {KiCad (5.1.10-1-10_14)} date Friday, October 15, 2021 at 11:06:39 AM
; FORMAT={-:-/ absolute / metric / decimal}
; #@! TF.CreationDate,2021-10-15T11:06:39-04:00
; #@! TF.GenerationSoftware,Kicad,Pcbnew,(5.1.10-1-10_14)
; #@! TF.FileFunction,Plated,1,2,PTH
FMAT,2
METRIC
T1C0.400
T2C0.600
T3C0.650
T4C0.800
T5C0.900
T6C1.000
T7C3.200
T8C5.300
%
G90
G05
T1
X87.376Y-46.482
X87.63Y-38.1
X120.142Y-28.448
X120.142Y-32.258
X143.764Y-92.456
X181.61Y-25.908
X208.788Y-27.178
X209.042Y-31.496
T2
X93.025Y-52.8
X93.025Y-72.0
X94.189Y-49.989
X94.189Y-55.611
X94.189Y-69.189
X94.189Y-74.811
X97.0Y-48.825
X97.0Y-56.775
X97.0Y-68.025
X97.0Y-75.975
X99.811Y-49.989
X99.811Y-55.611
X99.811Y-69.189
X99.811Y-74.811
X100.975Y-52.8
X100.975Y-72.0
T3
X193.294Y-88.646
T4
X102.0Y-35.0
X104.54Y-35.0
X107.08Y-35.0
X112.0Y-29.0
X112.0Y-31.54
X112.0Y-34.08
X112.0Y-39.0
X112.0Y-41.54
X112.0Y-44.08
T5
X153.834Y-92.474
X153.834Y-97.046
X156.374Y-92.474
X156.374Y-97.046
T6
X116.75Y-88.156
X117.004Y-53.104
X117.004Y-55.644
X119.29Y-88.156
X121.83Y-88.156
X124.37Y-88.156
X126.91Y-88.156
X130.72Y-85.616
X130.72Y-88.156
X193.458Y-27.704
X193.458Y-30.244
T7
X123.0Y-75.0
X187.0Y-75.0
T8
X97.0Y-52.8
X97.0Y-72.0
T0
M30
