%FSLAX45Y45*%
G04 Gerber Fmt 4.5, Leading zero omitted, Abs format (unit mm)*
G04 Created by KiCad (PCBNEW (5.1.10-1-10_14)) date 2021-10-15 11:06:59*
%MOMM*%
%LPD*%
G01*
G04 APERTURE LIST*
%TA.AperFunction,Profile*%
%ADD10C,0.050000*%
%TD*%
%ADD11C,0.200000*%
%ADD12C,0.300000*%
G04 APERTURE END LIST*
D10*
X22300000Y-6600000D02*
G75*
G03*
X22300000Y-6600000I-100000J0D01*
G01*
X8500000Y-2700000D02*
G75*
G02*
X8700000Y-2500000I200000J0D01*
G01*
X8700000Y-10000000D02*
G75*
G02*
X8500000Y-9800000I0J200000D01*
G01*
X23500000Y-9800000D02*
G75*
G02*
X23300000Y-10000000I-200000J0D01*
G01*
X20800000Y-6600000D02*
G75*
G03*
X20800000Y-6600000I-100000J0D01*
G01*
X21650000Y-3750000D02*
G75*
G03*
X21650000Y-3750000I-150000J0D01*
G01*
X20550000Y-9420600D02*
X20550000Y-8120600D01*
X22500000Y-9420600D02*
X20550000Y-9420600D01*
X22500000Y-8120600D02*
X22500000Y-9420600D01*
X20550000Y-8120600D02*
X22500000Y-8120600D01*
X23300000Y-2500000D02*
G75*
G02*
X23500000Y-2700000I0J-200000D01*
G01*
X21975000Y-5000000D02*
G75*
G03*
X21975000Y-5000000I-475000J0D01*
G01*
X18500000Y-6000000D02*
G75*
G03*
X18500000Y-6000000I-3000000J0D01*
G01*
X8500000Y-9800000D02*
X8500000Y-2700000D01*
X8700000Y-2500000D02*
X23300000Y-2500000D01*
X23500000Y-9800000D02*
X23500000Y-2700000D01*
X8700000Y-10000000D02*
X23300000Y-10000000D01*
D11*
X8540000Y-2540000D02*
X8860000Y-2860000D01*
X8860000Y-2540000D02*
X8540000Y-2860000D01*
X8540000Y-9640000D02*
X8860000Y-9960000D01*
X8860000Y-9640000D02*
X8540000Y-9960000D01*
X23140000Y-2540000D02*
X23460000Y-2860000D01*
X23460000Y-2540000D02*
X23140000Y-2860000D01*
X23140000Y-9640000D02*
X23460000Y-9960000D01*
X23460000Y-9640000D02*
X23140000Y-9960000D01*
X21020000Y-7200000D02*
G75*
G03*
X21020000Y-7200000I-320000J0D01*
G01*
X22520000Y-7200000D02*
G75*
G03*
X22520000Y-7200000I-320000J0D01*
G01*
D12*
X8783928Y-10468214D02*
X8783928Y-10168214D01*
X8855357Y-10168214D01*
X8898214Y-10182500D01*
X8926786Y-10211072D01*
X8941071Y-10239643D01*
X8955357Y-10296786D01*
X8955357Y-10339643D01*
X8941071Y-10396786D01*
X8926786Y-10425357D01*
X8898214Y-10453929D01*
X8855357Y-10468214D01*
X8783928Y-10468214D01*
X9083928Y-10468214D02*
X9083928Y-10268214D01*
X9083928Y-10325357D02*
X9098214Y-10296786D01*
X9112500Y-10282500D01*
X9141071Y-10268214D01*
X9169643Y-10268214D01*
X9269643Y-10468214D02*
X9269643Y-10268214D01*
X9269643Y-10168214D02*
X9255357Y-10182500D01*
X9269643Y-10196786D01*
X9283928Y-10182500D01*
X9269643Y-10168214D01*
X9269643Y-10196786D01*
X9455357Y-10468214D02*
X9426786Y-10453929D01*
X9412500Y-10425357D01*
X9412500Y-10168214D01*
X9612500Y-10468214D02*
X9583928Y-10453929D01*
X9569643Y-10425357D01*
X9569643Y-10168214D01*
X9955357Y-10468214D02*
X9955357Y-10168214D01*
X10055357Y-10382500D01*
X10155357Y-10168214D01*
X10155357Y-10468214D01*
X10426786Y-10468214D02*
X10426786Y-10311072D01*
X10412500Y-10282500D01*
X10383928Y-10268214D01*
X10326786Y-10268214D01*
X10298214Y-10282500D01*
X10426786Y-10453929D02*
X10398214Y-10468214D01*
X10326786Y-10468214D01*
X10298214Y-10453929D01*
X10283928Y-10425357D01*
X10283928Y-10396786D01*
X10298214Y-10368214D01*
X10326786Y-10353929D01*
X10398214Y-10353929D01*
X10426786Y-10339643D01*
X10569643Y-10268214D02*
X10569643Y-10568214D01*
X10569643Y-10282500D02*
X10598214Y-10268214D01*
X10655357Y-10268214D01*
X10683928Y-10282500D01*
X10698214Y-10296786D01*
X10712500Y-10325357D01*
X10712500Y-10411072D01*
X10698214Y-10439643D01*
X10683928Y-10453929D01*
X10655357Y-10468214D01*
X10598214Y-10468214D01*
X10569643Y-10453929D01*
X10841071Y-10439643D02*
X10855357Y-10453929D01*
X10841071Y-10468214D01*
X10826786Y-10453929D01*
X10841071Y-10439643D01*
X10841071Y-10468214D01*
X10841071Y-10282500D02*
X10855357Y-10296786D01*
X10841071Y-10311072D01*
X10826786Y-10296786D01*
X10841071Y-10282500D01*
X10841071Y-10311072D01*
X8177500Y-10802500D02*
X8497500Y-11122500D01*
X8497500Y-10802500D02*
X8177500Y-11122500D01*
X8755357Y-10798214D02*
X8941071Y-10798214D01*
X8841071Y-10912500D01*
X8883928Y-10912500D01*
X8912500Y-10926786D01*
X8926786Y-10941072D01*
X8941071Y-10969643D01*
X8941071Y-11041072D01*
X8926786Y-11069643D01*
X8912500Y-11083929D01*
X8883928Y-11098214D01*
X8798214Y-11098214D01*
X8769643Y-11083929D01*
X8755357Y-11069643D01*
X9069643Y-11069643D02*
X9083928Y-11083929D01*
X9069643Y-11098214D01*
X9055357Y-11083929D01*
X9069643Y-11069643D01*
X9069643Y-11098214D01*
X9198214Y-10826786D02*
X9212500Y-10812500D01*
X9241071Y-10798214D01*
X9312500Y-10798214D01*
X9341071Y-10812500D01*
X9355357Y-10826786D01*
X9369643Y-10855357D01*
X9369643Y-10883929D01*
X9355357Y-10926786D01*
X9183928Y-11098214D01*
X9369643Y-11098214D01*
X9555357Y-10798214D02*
X9583928Y-10798214D01*
X9612500Y-10812500D01*
X9626786Y-10826786D01*
X9641071Y-10855357D01*
X9655357Y-10912500D01*
X9655357Y-10983929D01*
X9641071Y-11041072D01*
X9626786Y-11069643D01*
X9612500Y-11083929D01*
X9583928Y-11098214D01*
X9555357Y-11098214D01*
X9526786Y-11083929D01*
X9512500Y-11069643D01*
X9498214Y-11041072D01*
X9483928Y-10983929D01*
X9483928Y-10912500D01*
X9498214Y-10855357D01*
X9512500Y-10826786D01*
X9526786Y-10812500D01*
X9555357Y-10798214D01*
X9841071Y-10798214D02*
X9869643Y-10798214D01*
X9898214Y-10812500D01*
X9912500Y-10826786D01*
X9926786Y-10855357D01*
X9941071Y-10912500D01*
X9941071Y-10983929D01*
X9926786Y-11041072D01*
X9912500Y-11069643D01*
X9898214Y-11083929D01*
X9869643Y-11098214D01*
X9841071Y-11098214D01*
X9812500Y-11083929D01*
X9798214Y-11069643D01*
X9783928Y-11041072D01*
X9769643Y-10983929D01*
X9769643Y-10912500D01*
X9783928Y-10855357D01*
X9798214Y-10826786D01*
X9812500Y-10812500D01*
X9841071Y-10798214D01*
X10069643Y-11098214D02*
X10069643Y-10898214D01*
X10069643Y-10926786D02*
X10083928Y-10912500D01*
X10112500Y-10898214D01*
X10155357Y-10898214D01*
X10183928Y-10912500D01*
X10198214Y-10941072D01*
X10198214Y-11098214D01*
X10198214Y-10941072D02*
X10212500Y-10912500D01*
X10241071Y-10898214D01*
X10283928Y-10898214D01*
X10312500Y-10912500D01*
X10326786Y-10941072D01*
X10326786Y-11098214D01*
X10469643Y-11098214D02*
X10469643Y-10898214D01*
X10469643Y-10926786D02*
X10483928Y-10912500D01*
X10512500Y-10898214D01*
X10555357Y-10898214D01*
X10583928Y-10912500D01*
X10598214Y-10941072D01*
X10598214Y-11098214D01*
X10598214Y-10941072D02*
X10612500Y-10912500D01*
X10641071Y-10898214D01*
X10683928Y-10898214D01*
X10712500Y-10912500D01*
X10726786Y-10941072D01*
X10726786Y-11098214D01*
X11312500Y-10783929D02*
X11055357Y-11169643D01*
X11698214Y-10798214D02*
X11726786Y-10798214D01*
X11755357Y-10812500D01*
X11769643Y-10826786D01*
X11783928Y-10855357D01*
X11798214Y-10912500D01*
X11798214Y-10983929D01*
X11783928Y-11041072D01*
X11769643Y-11069643D01*
X11755357Y-11083929D01*
X11726786Y-11098214D01*
X11698214Y-11098214D01*
X11669643Y-11083929D01*
X11655357Y-11069643D01*
X11641071Y-11041072D01*
X11626786Y-10983929D01*
X11626786Y-10912500D01*
X11641071Y-10855357D01*
X11655357Y-10826786D01*
X11669643Y-10812500D01*
X11698214Y-10798214D01*
X11926786Y-11069643D02*
X11941071Y-11083929D01*
X11926786Y-11098214D01*
X11912500Y-11083929D01*
X11926786Y-11069643D01*
X11926786Y-11098214D01*
X12226786Y-11098214D02*
X12055357Y-11098214D01*
X12141071Y-11098214D02*
X12141071Y-10798214D01*
X12112500Y-10841072D01*
X12083928Y-10869643D01*
X12055357Y-10883929D01*
X12341071Y-10826786D02*
X12355357Y-10812500D01*
X12383928Y-10798214D01*
X12455357Y-10798214D01*
X12483928Y-10812500D01*
X12498214Y-10826786D01*
X12512500Y-10855357D01*
X12512500Y-10883929D01*
X12498214Y-10926786D01*
X12326786Y-11098214D01*
X12512500Y-11098214D01*
X12769643Y-10798214D02*
X12712500Y-10798214D01*
X12683928Y-10812500D01*
X12669643Y-10826786D01*
X12641071Y-10869643D01*
X12626786Y-10926786D01*
X12626786Y-11041072D01*
X12641071Y-11069643D01*
X12655357Y-11083929D01*
X12683928Y-11098214D01*
X12741071Y-11098214D01*
X12769643Y-11083929D01*
X12783928Y-11069643D01*
X12798214Y-11041072D01*
X12798214Y-10969643D01*
X12783928Y-10941072D01*
X12769643Y-10926786D01*
X12741071Y-10912500D01*
X12683928Y-10912500D01*
X12655357Y-10926786D01*
X12641071Y-10941072D01*
X12626786Y-10969643D01*
X12983928Y-10798214D02*
X13012500Y-10798214D01*
X13041071Y-10812500D01*
X13055357Y-10826786D01*
X13069643Y-10855357D01*
X13083928Y-10912500D01*
X13083928Y-10983929D01*
X13069643Y-11041072D01*
X13055357Y-11069643D01*
X13041071Y-11083929D01*
X13012500Y-11098214D01*
X12983928Y-11098214D01*
X12955357Y-11083929D01*
X12941071Y-11069643D01*
X12926786Y-11041072D01*
X12912500Y-10983929D01*
X12912500Y-10912500D01*
X12926786Y-10855357D01*
X12941071Y-10826786D01*
X12955357Y-10812500D01*
X12983928Y-10798214D01*
X13198214Y-10798214D02*
X13198214Y-10855357D01*
X13312500Y-10798214D02*
X13312500Y-10855357D01*
X13755357Y-11212500D02*
X13741071Y-11198214D01*
X13712500Y-11155357D01*
X13698214Y-11126786D01*
X13683928Y-11083929D01*
X13669643Y-11012500D01*
X13669643Y-10955357D01*
X13683928Y-10883929D01*
X13698214Y-10841072D01*
X13712500Y-10812500D01*
X13741071Y-10769643D01*
X13755357Y-10755357D01*
X13998214Y-10898214D02*
X13998214Y-11098214D01*
X13926786Y-10783929D02*
X13855357Y-10998214D01*
X14041071Y-10998214D01*
X14383928Y-11098214D02*
X14383928Y-10798214D01*
X14512500Y-11098214D02*
X14512500Y-10941072D01*
X14498214Y-10912500D01*
X14469643Y-10898214D01*
X14426786Y-10898214D01*
X14398214Y-10912500D01*
X14383928Y-10926786D01*
X14698214Y-11098214D02*
X14669643Y-11083929D01*
X14655357Y-11069643D01*
X14641071Y-11041072D01*
X14641071Y-10955357D01*
X14655357Y-10926786D01*
X14669643Y-10912500D01*
X14698214Y-10898214D01*
X14741071Y-10898214D01*
X14769643Y-10912500D01*
X14783928Y-10926786D01*
X14798214Y-10955357D01*
X14798214Y-11041072D01*
X14783928Y-11069643D01*
X14769643Y-11083929D01*
X14741071Y-11098214D01*
X14698214Y-11098214D01*
X14969643Y-11098214D02*
X14941071Y-11083929D01*
X14926786Y-11055357D01*
X14926786Y-10798214D01*
X15198214Y-11083929D02*
X15169643Y-11098214D01*
X15112500Y-11098214D01*
X15083928Y-11083929D01*
X15069643Y-11055357D01*
X15069643Y-10941072D01*
X15083928Y-10912500D01*
X15112500Y-10898214D01*
X15169643Y-10898214D01*
X15198214Y-10912500D01*
X15212500Y-10941072D01*
X15212500Y-10969643D01*
X15069643Y-10998214D01*
X15326786Y-11083929D02*
X15355357Y-11098214D01*
X15412500Y-11098214D01*
X15441071Y-11083929D01*
X15455357Y-11055357D01*
X15455357Y-11041072D01*
X15441071Y-11012500D01*
X15412500Y-10998214D01*
X15369643Y-10998214D01*
X15341071Y-10983929D01*
X15326786Y-10955357D01*
X15326786Y-10941072D01*
X15341071Y-10912500D01*
X15369643Y-10898214D01*
X15412500Y-10898214D01*
X15441071Y-10912500D01*
X15555357Y-11212500D02*
X15569643Y-11198214D01*
X15598214Y-11155357D01*
X15612500Y-11126786D01*
X15626786Y-11083929D01*
X15641071Y-11012500D01*
X15641071Y-10955357D01*
X15626786Y-10883929D01*
X15612500Y-10841072D01*
X15598214Y-10812500D01*
X15569643Y-10769643D01*
X15555357Y-10755357D01*
X16098214Y-11212500D02*
X16083928Y-11198214D01*
X16055357Y-11155357D01*
X16041071Y-11126786D01*
X16026786Y-11083929D01*
X16012500Y-11012500D01*
X16012500Y-10955357D01*
X16026786Y-10883929D01*
X16041071Y-10841072D01*
X16055357Y-10812500D01*
X16083928Y-10769643D01*
X16098214Y-10755357D01*
X16212500Y-10898214D02*
X16212500Y-11098214D01*
X16212500Y-10926786D02*
X16226786Y-10912500D01*
X16255357Y-10898214D01*
X16298214Y-10898214D01*
X16326786Y-10912500D01*
X16341071Y-10941072D01*
X16341071Y-11098214D01*
X16526786Y-11098214D02*
X16498214Y-11083929D01*
X16483928Y-11069643D01*
X16469643Y-11041072D01*
X16469643Y-10955357D01*
X16483928Y-10926786D01*
X16498214Y-10912500D01*
X16526786Y-10898214D01*
X16569643Y-10898214D01*
X16598214Y-10912500D01*
X16612500Y-10926786D01*
X16626786Y-10955357D01*
X16626786Y-11041072D01*
X16612500Y-11069643D01*
X16598214Y-11083929D01*
X16569643Y-11098214D01*
X16526786Y-11098214D01*
X16712500Y-10898214D02*
X16826786Y-10898214D01*
X16755357Y-10798214D02*
X16755357Y-11055357D01*
X16769643Y-11083929D01*
X16798214Y-11098214D01*
X16826786Y-11098214D01*
X17155357Y-10898214D02*
X17155357Y-11198214D01*
X17155357Y-10912500D02*
X17183928Y-10898214D01*
X17241071Y-10898214D01*
X17269643Y-10912500D01*
X17283928Y-10926786D01*
X17298214Y-10955357D01*
X17298214Y-11041072D01*
X17283928Y-11069643D01*
X17269643Y-11083929D01*
X17241071Y-11098214D01*
X17183928Y-11098214D01*
X17155357Y-11083929D01*
X17469643Y-11098214D02*
X17441071Y-11083929D01*
X17426786Y-11055357D01*
X17426786Y-10798214D01*
X17712500Y-11098214D02*
X17712500Y-10941072D01*
X17698214Y-10912500D01*
X17669643Y-10898214D01*
X17612500Y-10898214D01*
X17583928Y-10912500D01*
X17712500Y-11083929D02*
X17683928Y-11098214D01*
X17612500Y-11098214D01*
X17583928Y-11083929D01*
X17569643Y-11055357D01*
X17569643Y-11026786D01*
X17583928Y-10998214D01*
X17612500Y-10983929D01*
X17683928Y-10983929D01*
X17712500Y-10969643D01*
X17812500Y-10898214D02*
X17926786Y-10898214D01*
X17855357Y-10798214D02*
X17855357Y-11055357D01*
X17869643Y-11083929D01*
X17898214Y-11098214D01*
X17926786Y-11098214D01*
X18141071Y-11083929D02*
X18112500Y-11098214D01*
X18055357Y-11098214D01*
X18026786Y-11083929D01*
X18012500Y-11055357D01*
X18012500Y-10941072D01*
X18026786Y-10912500D01*
X18055357Y-10898214D01*
X18112500Y-10898214D01*
X18141071Y-10912500D01*
X18155357Y-10941072D01*
X18155357Y-10969643D01*
X18012500Y-10998214D01*
X18412500Y-11098214D02*
X18412500Y-10798214D01*
X18412500Y-11083929D02*
X18383928Y-11098214D01*
X18326786Y-11098214D01*
X18298214Y-11083929D01*
X18283928Y-11069643D01*
X18269643Y-11041072D01*
X18269643Y-10955357D01*
X18283928Y-10926786D01*
X18298214Y-10912500D01*
X18326786Y-10898214D01*
X18383928Y-10898214D01*
X18412500Y-10912500D01*
X18526786Y-11212500D02*
X18541071Y-11198214D01*
X18569643Y-11155357D01*
X18583928Y-11126786D01*
X18598214Y-11083929D01*
X18612500Y-11012500D01*
X18612500Y-10955357D01*
X18598214Y-10883929D01*
X18583928Y-10841072D01*
X18569643Y-10812500D01*
X18541071Y-10769643D01*
X18526786Y-10755357D01*
X8497500Y-11412500D02*
G75*
G03*
X8497500Y-11412500I-320000J0D01*
G01*
X8912500Y-11248214D02*
X8855357Y-11248214D01*
X8826786Y-11262500D01*
X8812500Y-11276786D01*
X8783928Y-11319643D01*
X8769643Y-11376786D01*
X8769643Y-11491071D01*
X8783928Y-11519643D01*
X8798214Y-11533929D01*
X8826786Y-11548214D01*
X8883928Y-11548214D01*
X8912500Y-11533929D01*
X8926786Y-11519643D01*
X8941071Y-11491071D01*
X8941071Y-11419643D01*
X8926786Y-11391071D01*
X8912500Y-11376786D01*
X8883928Y-11362500D01*
X8826786Y-11362500D01*
X8798214Y-11376786D01*
X8783928Y-11391071D01*
X8769643Y-11419643D01*
X9069643Y-11519643D02*
X9083928Y-11533929D01*
X9069643Y-11548214D01*
X9055357Y-11533929D01*
X9069643Y-11519643D01*
X9069643Y-11548214D01*
X9341071Y-11348214D02*
X9341071Y-11548214D01*
X9269643Y-11233929D02*
X9198214Y-11448214D01*
X9383928Y-11448214D01*
X9555357Y-11248214D02*
X9583928Y-11248214D01*
X9612500Y-11262500D01*
X9626786Y-11276786D01*
X9641071Y-11305357D01*
X9655357Y-11362500D01*
X9655357Y-11433929D01*
X9641071Y-11491071D01*
X9626786Y-11519643D01*
X9612500Y-11533929D01*
X9583928Y-11548214D01*
X9555357Y-11548214D01*
X9526786Y-11533929D01*
X9512500Y-11519643D01*
X9498214Y-11491071D01*
X9483928Y-11433929D01*
X9483928Y-11362500D01*
X9498214Y-11305357D01*
X9512500Y-11276786D01*
X9526786Y-11262500D01*
X9555357Y-11248214D01*
X9841071Y-11248214D02*
X9869643Y-11248214D01*
X9898214Y-11262500D01*
X9912500Y-11276786D01*
X9926786Y-11305357D01*
X9941071Y-11362500D01*
X9941071Y-11433929D01*
X9926786Y-11491071D01*
X9912500Y-11519643D01*
X9898214Y-11533929D01*
X9869643Y-11548214D01*
X9841071Y-11548214D01*
X9812500Y-11533929D01*
X9798214Y-11519643D01*
X9783928Y-11491071D01*
X9769643Y-11433929D01*
X9769643Y-11362500D01*
X9783928Y-11305357D01*
X9798214Y-11276786D01*
X9812500Y-11262500D01*
X9841071Y-11248214D01*
X10069643Y-11548214D02*
X10069643Y-11348214D01*
X10069643Y-11376786D02*
X10083928Y-11362500D01*
X10112500Y-11348214D01*
X10155357Y-11348214D01*
X10183928Y-11362500D01*
X10198214Y-11391071D01*
X10198214Y-11548214D01*
X10198214Y-11391071D02*
X10212500Y-11362500D01*
X10241071Y-11348214D01*
X10283928Y-11348214D01*
X10312500Y-11362500D01*
X10326786Y-11391071D01*
X10326786Y-11548214D01*
X10469643Y-11548214D02*
X10469643Y-11348214D01*
X10469643Y-11376786D02*
X10483928Y-11362500D01*
X10512500Y-11348214D01*
X10555357Y-11348214D01*
X10583928Y-11362500D01*
X10598214Y-11391071D01*
X10598214Y-11548214D01*
X10598214Y-11391071D02*
X10612500Y-11362500D01*
X10641071Y-11348214D01*
X10683928Y-11348214D01*
X10712500Y-11362500D01*
X10726786Y-11391071D01*
X10726786Y-11548214D01*
X11312500Y-11233929D02*
X11055357Y-11619643D01*
X11698214Y-11248214D02*
X11726786Y-11248214D01*
X11755357Y-11262500D01*
X11769643Y-11276786D01*
X11783928Y-11305357D01*
X11798214Y-11362500D01*
X11798214Y-11433929D01*
X11783928Y-11491071D01*
X11769643Y-11519643D01*
X11755357Y-11533929D01*
X11726786Y-11548214D01*
X11698214Y-11548214D01*
X11669643Y-11533929D01*
X11655357Y-11519643D01*
X11641071Y-11491071D01*
X11626786Y-11433929D01*
X11626786Y-11362500D01*
X11641071Y-11305357D01*
X11655357Y-11276786D01*
X11669643Y-11262500D01*
X11698214Y-11248214D01*
X11926786Y-11519643D02*
X11941071Y-11533929D01*
X11926786Y-11548214D01*
X11912500Y-11533929D01*
X11926786Y-11519643D01*
X11926786Y-11548214D01*
X12055357Y-11276786D02*
X12069643Y-11262500D01*
X12098214Y-11248214D01*
X12169643Y-11248214D01*
X12198214Y-11262500D01*
X12212500Y-11276786D01*
X12226786Y-11305357D01*
X12226786Y-11333929D01*
X12212500Y-11376786D01*
X12041071Y-11548214D01*
X12226786Y-11548214D01*
X12498214Y-11248214D02*
X12355357Y-11248214D01*
X12341071Y-11391071D01*
X12355357Y-11376786D01*
X12383928Y-11362500D01*
X12455357Y-11362500D01*
X12483928Y-11376786D01*
X12498214Y-11391071D01*
X12512500Y-11419643D01*
X12512500Y-11491071D01*
X12498214Y-11519643D01*
X12483928Y-11533929D01*
X12455357Y-11548214D01*
X12383928Y-11548214D01*
X12355357Y-11533929D01*
X12341071Y-11519643D01*
X12626786Y-11276786D02*
X12641071Y-11262500D01*
X12669643Y-11248214D01*
X12741071Y-11248214D01*
X12769643Y-11262500D01*
X12783928Y-11276786D01*
X12798214Y-11305357D01*
X12798214Y-11333929D01*
X12783928Y-11376786D01*
X12612500Y-11548214D01*
X12798214Y-11548214D01*
X12983928Y-11248214D02*
X13012500Y-11248214D01*
X13041071Y-11262500D01*
X13055357Y-11276786D01*
X13069643Y-11305357D01*
X13083928Y-11362500D01*
X13083928Y-11433929D01*
X13069643Y-11491071D01*
X13055357Y-11519643D01*
X13041071Y-11533929D01*
X13012500Y-11548214D01*
X12983928Y-11548214D01*
X12955357Y-11533929D01*
X12941071Y-11519643D01*
X12926786Y-11491071D01*
X12912500Y-11433929D01*
X12912500Y-11362500D01*
X12926786Y-11305357D01*
X12941071Y-11276786D01*
X12955357Y-11262500D01*
X12983928Y-11248214D01*
X13198214Y-11248214D02*
X13198214Y-11305357D01*
X13312500Y-11248214D02*
X13312500Y-11305357D01*
X13755357Y-11662500D02*
X13741071Y-11648214D01*
X13712500Y-11605357D01*
X13698214Y-11576786D01*
X13683928Y-11533929D01*
X13669643Y-11462500D01*
X13669643Y-11405357D01*
X13683928Y-11333929D01*
X13698214Y-11291071D01*
X13712500Y-11262500D01*
X13741071Y-11219643D01*
X13755357Y-11205357D01*
X13855357Y-11276786D02*
X13869643Y-11262500D01*
X13898214Y-11248214D01*
X13969643Y-11248214D01*
X13998214Y-11262500D01*
X14012500Y-11276786D01*
X14026786Y-11305357D01*
X14026786Y-11333929D01*
X14012500Y-11376786D01*
X13841071Y-11548214D01*
X14026786Y-11548214D01*
X14383928Y-11548214D02*
X14383928Y-11248214D01*
X14512500Y-11548214D02*
X14512500Y-11391071D01*
X14498214Y-11362500D01*
X14469643Y-11348214D01*
X14426786Y-11348214D01*
X14398214Y-11362500D01*
X14383928Y-11376786D01*
X14698214Y-11548214D02*
X14669643Y-11533929D01*
X14655357Y-11519643D01*
X14641071Y-11491071D01*
X14641071Y-11405357D01*
X14655357Y-11376786D01*
X14669643Y-11362500D01*
X14698214Y-11348214D01*
X14741071Y-11348214D01*
X14769643Y-11362500D01*
X14783928Y-11376786D01*
X14798214Y-11405357D01*
X14798214Y-11491071D01*
X14783928Y-11519643D01*
X14769643Y-11533929D01*
X14741071Y-11548214D01*
X14698214Y-11548214D01*
X14969643Y-11548214D02*
X14941071Y-11533929D01*
X14926786Y-11505357D01*
X14926786Y-11248214D01*
X15198214Y-11533929D02*
X15169643Y-11548214D01*
X15112500Y-11548214D01*
X15083928Y-11533929D01*
X15069643Y-11505357D01*
X15069643Y-11391071D01*
X15083928Y-11362500D01*
X15112500Y-11348214D01*
X15169643Y-11348214D01*
X15198214Y-11362500D01*
X15212500Y-11391071D01*
X15212500Y-11419643D01*
X15069643Y-11448214D01*
X15326786Y-11533929D02*
X15355357Y-11548214D01*
X15412500Y-11548214D01*
X15441071Y-11533929D01*
X15455357Y-11505357D01*
X15455357Y-11491071D01*
X15441071Y-11462500D01*
X15412500Y-11448214D01*
X15369643Y-11448214D01*
X15341071Y-11433929D01*
X15326786Y-11405357D01*
X15326786Y-11391071D01*
X15341071Y-11362500D01*
X15369643Y-11348214D01*
X15412500Y-11348214D01*
X15441071Y-11362500D01*
X15555357Y-11662500D02*
X15569643Y-11648214D01*
X15598214Y-11605357D01*
X15612500Y-11576786D01*
X15626786Y-11533929D01*
X15641071Y-11462500D01*
X15641071Y-11405357D01*
X15626786Y-11333929D01*
X15612500Y-11291071D01*
X15598214Y-11262500D01*
X15569643Y-11219643D01*
X15555357Y-11205357D01*
X16098214Y-11662500D02*
X16083928Y-11648214D01*
X16055357Y-11605357D01*
X16041071Y-11576786D01*
X16026786Y-11533929D01*
X16012500Y-11462500D01*
X16012500Y-11405357D01*
X16026786Y-11333929D01*
X16041071Y-11291071D01*
X16055357Y-11262500D01*
X16083928Y-11219643D01*
X16098214Y-11205357D01*
X16212500Y-11348214D02*
X16212500Y-11548214D01*
X16212500Y-11376786D02*
X16226786Y-11362500D01*
X16255357Y-11348214D01*
X16298214Y-11348214D01*
X16326786Y-11362500D01*
X16341071Y-11391071D01*
X16341071Y-11548214D01*
X16526786Y-11548214D02*
X16498214Y-11533929D01*
X16483928Y-11519643D01*
X16469643Y-11491071D01*
X16469643Y-11405357D01*
X16483928Y-11376786D01*
X16498214Y-11362500D01*
X16526786Y-11348214D01*
X16569643Y-11348214D01*
X16598214Y-11362500D01*
X16612500Y-11376786D01*
X16626786Y-11405357D01*
X16626786Y-11491071D01*
X16612500Y-11519643D01*
X16598214Y-11533929D01*
X16569643Y-11548214D01*
X16526786Y-11548214D01*
X16712500Y-11348214D02*
X16826786Y-11348214D01*
X16755357Y-11248214D02*
X16755357Y-11505357D01*
X16769643Y-11533929D01*
X16798214Y-11548214D01*
X16826786Y-11548214D01*
X17155357Y-11348214D02*
X17155357Y-11648214D01*
X17155357Y-11362500D02*
X17183928Y-11348214D01*
X17241071Y-11348214D01*
X17269643Y-11362500D01*
X17283928Y-11376786D01*
X17298214Y-11405357D01*
X17298214Y-11491071D01*
X17283928Y-11519643D01*
X17269643Y-11533929D01*
X17241071Y-11548214D01*
X17183928Y-11548214D01*
X17155357Y-11533929D01*
X17469643Y-11548214D02*
X17441071Y-11533929D01*
X17426786Y-11505357D01*
X17426786Y-11248214D01*
X17712500Y-11548214D02*
X17712500Y-11391071D01*
X17698214Y-11362500D01*
X17669643Y-11348214D01*
X17612500Y-11348214D01*
X17583928Y-11362500D01*
X17712500Y-11533929D02*
X17683928Y-11548214D01*
X17612500Y-11548214D01*
X17583928Y-11533929D01*
X17569643Y-11505357D01*
X17569643Y-11476786D01*
X17583928Y-11448214D01*
X17612500Y-11433929D01*
X17683928Y-11433929D01*
X17712500Y-11419643D01*
X17812500Y-11348214D02*
X17926786Y-11348214D01*
X17855357Y-11248214D02*
X17855357Y-11505357D01*
X17869643Y-11533929D01*
X17898214Y-11548214D01*
X17926786Y-11548214D01*
X18141071Y-11533929D02*
X18112500Y-11548214D01*
X18055357Y-11548214D01*
X18026786Y-11533929D01*
X18012500Y-11505357D01*
X18012500Y-11391071D01*
X18026786Y-11362500D01*
X18055357Y-11348214D01*
X18112500Y-11348214D01*
X18141071Y-11362500D01*
X18155357Y-11391071D01*
X18155357Y-11419643D01*
X18012500Y-11448214D01*
X18412500Y-11548214D02*
X18412500Y-11248214D01*
X18412500Y-11533929D02*
X18383928Y-11548214D01*
X18326786Y-11548214D01*
X18298214Y-11533929D01*
X18283928Y-11519643D01*
X18269643Y-11491071D01*
X18269643Y-11405357D01*
X18283928Y-11376786D01*
X18298214Y-11362500D01*
X18326786Y-11348214D01*
X18383928Y-11348214D01*
X18412500Y-11362500D01*
X18526786Y-11662500D02*
X18541071Y-11648214D01*
X18569643Y-11605357D01*
X18583928Y-11576786D01*
X18598214Y-11533929D01*
X18612500Y-11462500D01*
X18612500Y-11405357D01*
X18598214Y-11333929D01*
X18583928Y-11291071D01*
X18569643Y-11262500D01*
X18541071Y-11219643D01*
X18526786Y-11205357D01*
M02*
