G04 #@! TF.GenerationSoftware,KiCad,Pcbnew,(5.1.10-1-10_14)*
G04 #@! TF.CreationDate,2021-10-15T12:17:32-04:00*
G04 #@! TF.ProjectId,Multimeter,4d756c74-696d-4657-9465-722e6b696361,rev?*
G04 #@! TF.SameCoordinates,Original*
G04 #@! TF.FileFunction,Copper,L1,Top*
G04 #@! TF.FilePolarity,Positive*
%FSLAX46Y46*%
G04 Gerber Fmt 4.6, Leading zero omitted, Abs format (unit mm)*
G04 Created by KiCad (PCBNEW (5.1.10-1-10_14)) date 2021-10-15 12:17:32*
%MOMM*%
%LPD*%
G01*
G04 APERTURE LIST*
G04 #@! TA.AperFunction,ComponentPad*
%ADD10O,1.700000X1.700000*%
G04 #@! TD*
G04 #@! TA.AperFunction,ComponentPad*
%ADD11R,1.700000X1.700000*%
G04 #@! TD*
G04 #@! TA.AperFunction,ComponentPad*
%ADD12C,5.600000*%
G04 #@! TD*
G04 #@! TA.AperFunction,ComponentPad*
%ADD13C,1.800000*%
G04 #@! TD*
G04 #@! TA.AperFunction,ComponentPad*
%ADD14R,1.800000X1.800000*%
G04 #@! TD*
G04 #@! TA.AperFunction,ComponentPad*
%ADD15R,1.000000X1.000000*%
G04 #@! TD*
G04 #@! TA.AperFunction,ComponentPad*
%ADD16C,0.900000*%
G04 #@! TD*
G04 #@! TA.AperFunction,ComponentPad*
%ADD17C,10.600000*%
G04 #@! TD*
G04 #@! TA.AperFunction,ComponentPad*
%ADD18C,1.440000*%
G04 #@! TD*
G04 #@! TA.AperFunction,ViaPad*
%ADD19C,0.800000*%
G04 #@! TD*
G04 #@! TA.AperFunction,Conductor*
%ADD20C,0.127000*%
G04 #@! TD*
G04 #@! TA.AperFunction,Conductor*
%ADD21C,0.254000*%
G04 #@! TD*
G04 #@! TA.AperFunction,Conductor*
%ADD22C,0.100000*%
G04 #@! TD*
G04 APERTURE END LIST*
D10*
X193458000Y-30244000D03*
D11*
X193458000Y-27704000D03*
D10*
X126910000Y-88156000D03*
X124370000Y-88156000D03*
X121830000Y-88156000D03*
X119290000Y-88156000D03*
D11*
X116750000Y-88156000D03*
D10*
X130720000Y-88156000D03*
D11*
X130720000Y-85616000D03*
D12*
X187000000Y-75000000D03*
X123000000Y-75000000D03*
D10*
X117004000Y-55644000D03*
D11*
X117004000Y-53104000D03*
D13*
X153834000Y-97046000D03*
D14*
X156374000Y-97046000D03*
D15*
X193294000Y-88646000D03*
D13*
X153834000Y-92474000D03*
D14*
X156374000Y-92474000D03*
D16*
X99810749Y-69189251D03*
X97000000Y-68025000D03*
X94189251Y-69189251D03*
X93025000Y-72000000D03*
X94189251Y-74810749D03*
X97000000Y-75975000D03*
X99810749Y-74810749D03*
X100975000Y-72000000D03*
D17*
X97000000Y-72000000D03*
D16*
X99810749Y-49989251D03*
X97000000Y-48825000D03*
X94189251Y-49989251D03*
X93025000Y-52800000D03*
X94189251Y-55610749D03*
X97000000Y-56775000D03*
X99810749Y-55610749D03*
X100975000Y-52800000D03*
D17*
X97000000Y-52800000D03*
D18*
X102000000Y-35000000D03*
X104540000Y-35000000D03*
X107080000Y-35000000D03*
X112000000Y-34080000D03*
X112000000Y-31540000D03*
X112000000Y-29000000D03*
X112000000Y-39000000D03*
X112000000Y-41540000D03*
X112000000Y-44080000D03*
D19*
X120142000Y-28448000D03*
X120142000Y-32258000D03*
X209042000Y-31496000D03*
X208788000Y-27178000D03*
X181610000Y-25908000D03*
X87376000Y-46482000D03*
X87630000Y-38100000D03*
X143764000Y-92456000D03*
D20*
X128016000Y-76708000D02*
X143764000Y-92456000D01*
X128016000Y-74422000D02*
X128016000Y-76708000D01*
X123444000Y-69850000D02*
X128016000Y-74422000D01*
X123444000Y-59544000D02*
X123444000Y-69850000D01*
X117004000Y-53104000D02*
X123444000Y-59544000D01*
D21*
X113500000Y-41540000D02*
X117004000Y-45044000D01*
X117004000Y-45044000D02*
X117004000Y-53104000D01*
X112000000Y-41540000D02*
X113500000Y-41540000D01*
X231019369Y-25941331D02*
X230850890Y-26348075D01*
X230765000Y-26779872D01*
X230765000Y-27220128D01*
X230850890Y-27651925D01*
X231019369Y-28058669D01*
X231263962Y-28424729D01*
X231575271Y-28736038D01*
X231941331Y-28980631D01*
X232348075Y-29149110D01*
X232779872Y-29235000D01*
X233220128Y-29235000D01*
X233651925Y-29149110D01*
X234058669Y-28980631D01*
X234340001Y-28792651D01*
X234340000Y-96207348D01*
X234058669Y-96019369D01*
X233651925Y-95850890D01*
X233220128Y-95765000D01*
X232779872Y-95765000D01*
X232348075Y-95850890D01*
X231941331Y-96019369D01*
X231575271Y-96263962D01*
X231263962Y-96575271D01*
X231019369Y-96941331D01*
X230850890Y-97348075D01*
X230765000Y-97779872D01*
X230765000Y-98220128D01*
X230850890Y-98651925D01*
X231019369Y-99058669D01*
X231207348Y-99340000D01*
X88792652Y-99340000D01*
X88980631Y-99058669D01*
X89149110Y-98651925D01*
X89235000Y-98220128D01*
X89235000Y-97779872D01*
X89149110Y-97348075D01*
X88980631Y-96941331D01*
X88949551Y-96894816D01*
X152299000Y-96894816D01*
X152299000Y-97197184D01*
X152357989Y-97493743D01*
X152473701Y-97773095D01*
X152641688Y-98024505D01*
X152855495Y-98238312D01*
X153106905Y-98406299D01*
X153386257Y-98522011D01*
X153682816Y-98581000D01*
X153985184Y-98581000D01*
X154281743Y-98522011D01*
X154561095Y-98406299D01*
X154812505Y-98238312D01*
X154878944Y-98171873D01*
X154884498Y-98190180D01*
X154943463Y-98300494D01*
X155022815Y-98397185D01*
X155119506Y-98476537D01*
X155229820Y-98535502D01*
X155349518Y-98571812D01*
X155474000Y-98584072D01*
X156088250Y-98581000D01*
X156247000Y-98422250D01*
X156247000Y-97173000D01*
X156501000Y-97173000D01*
X156501000Y-98422250D01*
X156659750Y-98581000D01*
X157274000Y-98584072D01*
X157398482Y-98571812D01*
X157518180Y-98535502D01*
X157628494Y-98476537D01*
X157725185Y-98397185D01*
X157804537Y-98300494D01*
X157863502Y-98190180D01*
X157899812Y-98070482D01*
X157912072Y-97946000D01*
X157909000Y-97331750D01*
X157750250Y-97173000D01*
X156501000Y-97173000D01*
X156247000Y-97173000D01*
X156227000Y-97173000D01*
X156227000Y-96919000D01*
X156247000Y-96919000D01*
X156247000Y-95669750D01*
X156501000Y-95669750D01*
X156501000Y-96919000D01*
X157750250Y-96919000D01*
X157909000Y-96760250D01*
X157912072Y-96146000D01*
X157899812Y-96021518D01*
X157863502Y-95901820D01*
X157804537Y-95791506D01*
X157725185Y-95694815D01*
X157628494Y-95615463D01*
X157518180Y-95556498D01*
X157398482Y-95520188D01*
X157274000Y-95507928D01*
X156659750Y-95511000D01*
X156501000Y-95669750D01*
X156247000Y-95669750D01*
X156088250Y-95511000D01*
X155474000Y-95507928D01*
X155349518Y-95520188D01*
X155229820Y-95556498D01*
X155119506Y-95615463D01*
X155022815Y-95694815D01*
X154943463Y-95791506D01*
X154884498Y-95901820D01*
X154878944Y-95920127D01*
X154812505Y-95853688D01*
X154561095Y-95685701D01*
X154281743Y-95569989D01*
X153985184Y-95511000D01*
X153682816Y-95511000D01*
X153386257Y-95569989D01*
X153106905Y-95685701D01*
X152855495Y-95853688D01*
X152641688Y-96067495D01*
X152473701Y-96318905D01*
X152357989Y-96598257D01*
X152299000Y-96894816D01*
X88949551Y-96894816D01*
X88736038Y-96575271D01*
X88424729Y-96263962D01*
X88058669Y-96019369D01*
X87651925Y-95850890D01*
X87220128Y-95765000D01*
X86779872Y-95765000D01*
X86348075Y-95850890D01*
X85941331Y-96019369D01*
X85660000Y-96207348D01*
X85660000Y-87306000D01*
X115261928Y-87306000D01*
X115261928Y-89006000D01*
X115274188Y-89130482D01*
X115310498Y-89250180D01*
X115369463Y-89360494D01*
X115448815Y-89457185D01*
X115545506Y-89536537D01*
X115655820Y-89595502D01*
X115775518Y-89631812D01*
X115900000Y-89644072D01*
X117600000Y-89644072D01*
X117724482Y-89631812D01*
X117844180Y-89595502D01*
X117954494Y-89536537D01*
X118051185Y-89457185D01*
X118130537Y-89360494D01*
X118189502Y-89250180D01*
X118211513Y-89177620D01*
X118343368Y-89309475D01*
X118586589Y-89471990D01*
X118856842Y-89583932D01*
X119143740Y-89641000D01*
X119436260Y-89641000D01*
X119723158Y-89583932D01*
X119993411Y-89471990D01*
X120236632Y-89309475D01*
X120443475Y-89102632D01*
X120560000Y-88928240D01*
X120676525Y-89102632D01*
X120883368Y-89309475D01*
X121126589Y-89471990D01*
X121396842Y-89583932D01*
X121683740Y-89641000D01*
X121976260Y-89641000D01*
X122263158Y-89583932D01*
X122533411Y-89471990D01*
X122776632Y-89309475D01*
X122983475Y-89102632D01*
X123100000Y-88928240D01*
X123216525Y-89102632D01*
X123423368Y-89309475D01*
X123666589Y-89471990D01*
X123936842Y-89583932D01*
X124223740Y-89641000D01*
X124516260Y-89641000D01*
X124803158Y-89583932D01*
X125073411Y-89471990D01*
X125316632Y-89309475D01*
X125523475Y-89102632D01*
X125640000Y-88928240D01*
X125756525Y-89102632D01*
X125963368Y-89309475D01*
X126206589Y-89471990D01*
X126476842Y-89583932D01*
X126763740Y-89641000D01*
X127056260Y-89641000D01*
X127343158Y-89583932D01*
X127613411Y-89471990D01*
X127856632Y-89309475D01*
X128063475Y-89102632D01*
X128225990Y-88859411D01*
X128337932Y-88589158D01*
X128353102Y-88512890D01*
X129278524Y-88512890D01*
X129323175Y-88660099D01*
X129448359Y-88922920D01*
X129622412Y-89156269D01*
X129838645Y-89351178D01*
X130088748Y-89500157D01*
X130363109Y-89597481D01*
X130593000Y-89476814D01*
X130593000Y-88283000D01*
X130847000Y-88283000D01*
X130847000Y-89476814D01*
X131076891Y-89597481D01*
X131351252Y-89500157D01*
X131601355Y-89351178D01*
X131817588Y-89156269D01*
X131991641Y-88922920D01*
X132116825Y-88660099D01*
X132161476Y-88512890D01*
X132040155Y-88283000D01*
X130847000Y-88283000D01*
X130593000Y-88283000D01*
X129399845Y-88283000D01*
X129278524Y-88512890D01*
X128353102Y-88512890D01*
X128395000Y-88302260D01*
X128395000Y-88009740D01*
X128337932Y-87722842D01*
X128225990Y-87452589D01*
X128063475Y-87209368D01*
X127856632Y-87002525D01*
X127613411Y-86840010D01*
X127343158Y-86728068D01*
X127056260Y-86671000D01*
X126763740Y-86671000D01*
X126476842Y-86728068D01*
X126206589Y-86840010D01*
X125963368Y-87002525D01*
X125756525Y-87209368D01*
X125640000Y-87383760D01*
X125523475Y-87209368D01*
X125316632Y-87002525D01*
X125073411Y-86840010D01*
X124803158Y-86728068D01*
X124516260Y-86671000D01*
X124223740Y-86671000D01*
X123936842Y-86728068D01*
X123666589Y-86840010D01*
X123423368Y-87002525D01*
X123216525Y-87209368D01*
X123100000Y-87383760D01*
X122983475Y-87209368D01*
X122776632Y-87002525D01*
X122533411Y-86840010D01*
X122263158Y-86728068D01*
X121976260Y-86671000D01*
X121683740Y-86671000D01*
X121396842Y-86728068D01*
X121126589Y-86840010D01*
X120883368Y-87002525D01*
X120676525Y-87209368D01*
X120560000Y-87383760D01*
X120443475Y-87209368D01*
X120236632Y-87002525D01*
X119993411Y-86840010D01*
X119723158Y-86728068D01*
X119436260Y-86671000D01*
X119143740Y-86671000D01*
X118856842Y-86728068D01*
X118586589Y-86840010D01*
X118343368Y-87002525D01*
X118211513Y-87134380D01*
X118189502Y-87061820D01*
X118130537Y-86951506D01*
X118051185Y-86854815D01*
X117954494Y-86775463D01*
X117844180Y-86716498D01*
X117724482Y-86680188D01*
X117600000Y-86667928D01*
X115900000Y-86667928D01*
X115775518Y-86680188D01*
X115655820Y-86716498D01*
X115545506Y-86775463D01*
X115448815Y-86854815D01*
X115369463Y-86951506D01*
X115310498Y-87061820D01*
X115274188Y-87181518D01*
X115261928Y-87306000D01*
X85660000Y-87306000D01*
X85660000Y-84766000D01*
X129231928Y-84766000D01*
X129231928Y-86466000D01*
X129244188Y-86590482D01*
X129280498Y-86710180D01*
X129339463Y-86820494D01*
X129418815Y-86917185D01*
X129515506Y-86996537D01*
X129625820Y-87055502D01*
X129706466Y-87079966D01*
X129622412Y-87155731D01*
X129448359Y-87389080D01*
X129323175Y-87651901D01*
X129278524Y-87799110D01*
X129399845Y-88029000D01*
X130593000Y-88029000D01*
X130593000Y-88009000D01*
X130847000Y-88009000D01*
X130847000Y-88029000D01*
X132040155Y-88029000D01*
X132161476Y-87799110D01*
X132116825Y-87651901D01*
X131991641Y-87389080D01*
X131817588Y-87155731D01*
X131733534Y-87079966D01*
X131814180Y-87055502D01*
X131924494Y-86996537D01*
X132021185Y-86917185D01*
X132100537Y-86820494D01*
X132159502Y-86710180D01*
X132195812Y-86590482D01*
X132208072Y-86466000D01*
X132208072Y-84766000D01*
X132195812Y-84641518D01*
X132159502Y-84521820D01*
X132100537Y-84411506D01*
X132021185Y-84314815D01*
X131924494Y-84235463D01*
X131814180Y-84176498D01*
X131694482Y-84140188D01*
X131570000Y-84127928D01*
X129870000Y-84127928D01*
X129745518Y-84140188D01*
X129625820Y-84176498D01*
X129515506Y-84235463D01*
X129418815Y-84314815D01*
X129339463Y-84411506D01*
X129280498Y-84521820D01*
X129244188Y-84641518D01*
X129231928Y-84766000D01*
X85660000Y-84766000D01*
X85660000Y-76193552D01*
X92986053Y-76193552D01*
X93598155Y-76898303D01*
X94619133Y-77467851D01*
X95731605Y-77827272D01*
X96892822Y-77962754D01*
X98058156Y-77869090D01*
X99182827Y-77549881D01*
X100223612Y-77017394D01*
X100401845Y-76898303D01*
X101013947Y-76193552D01*
X97000000Y-72179605D01*
X92986053Y-76193552D01*
X85660000Y-76193552D01*
X85660000Y-71892822D01*
X91037246Y-71892822D01*
X91130910Y-73058156D01*
X91450119Y-74182827D01*
X91982606Y-75223612D01*
X92101697Y-75401845D01*
X92806448Y-76013947D01*
X96820395Y-72000000D01*
X97179605Y-72000000D01*
X101193552Y-76013947D01*
X101898303Y-75401845D01*
X102467851Y-74380867D01*
X102827272Y-73268395D01*
X102962754Y-72107178D01*
X102869090Y-70941844D01*
X102549881Y-69817173D01*
X102017394Y-68776388D01*
X101898303Y-68598155D01*
X101193552Y-67986053D01*
X97179605Y-72000000D01*
X96820395Y-72000000D01*
X92806448Y-67986053D01*
X92101697Y-68598155D01*
X91532149Y-69619133D01*
X91172728Y-70731605D01*
X91037246Y-71892822D01*
X85660000Y-71892822D01*
X85660000Y-67806448D01*
X92986053Y-67806448D01*
X97000000Y-71820395D01*
X101013947Y-67806448D01*
X100401845Y-67101697D01*
X99380867Y-66532149D01*
X98268395Y-66172728D01*
X97107178Y-66037246D01*
X95941844Y-66130910D01*
X94817173Y-66450119D01*
X93776388Y-66982606D01*
X93598155Y-67101697D01*
X92986053Y-67806448D01*
X85660000Y-67806448D01*
X85660000Y-52215454D01*
X91065000Y-52215454D01*
X91065000Y-53384546D01*
X91293079Y-54531176D01*
X91740471Y-55611277D01*
X92389984Y-56583342D01*
X93216658Y-57410016D01*
X94188723Y-58059529D01*
X95268824Y-58506921D01*
X96415454Y-58735000D01*
X97584546Y-58735000D01*
X98731176Y-58506921D01*
X99811277Y-58059529D01*
X100783342Y-57410016D01*
X101610016Y-56583342D01*
X101999197Y-56000890D01*
X115562524Y-56000890D01*
X115607175Y-56148099D01*
X115732359Y-56410920D01*
X115906412Y-56644269D01*
X116122645Y-56839178D01*
X116372748Y-56988157D01*
X116647109Y-57085481D01*
X116877000Y-56964814D01*
X116877000Y-55771000D01*
X117131000Y-55771000D01*
X117131000Y-56964814D01*
X117360891Y-57085481D01*
X117635252Y-56988157D01*
X117885355Y-56839178D01*
X118101588Y-56644269D01*
X118275641Y-56410920D01*
X118400825Y-56148099D01*
X118445476Y-56000890D01*
X118324155Y-55771000D01*
X117131000Y-55771000D01*
X116877000Y-55771000D01*
X115683845Y-55771000D01*
X115562524Y-56000890D01*
X101999197Y-56000890D01*
X102259529Y-55611277D01*
X102706921Y-54531176D01*
X102935000Y-53384546D01*
X102935000Y-52215454D01*
X102706921Y-51068824D01*
X102259529Y-49988723D01*
X101610016Y-49016658D01*
X100783342Y-48189984D01*
X99811277Y-47540471D01*
X98731176Y-47093079D01*
X97584546Y-46865000D01*
X96415454Y-46865000D01*
X95268824Y-47093079D01*
X94188723Y-47540471D01*
X93216658Y-48189984D01*
X92389984Y-49016658D01*
X91740471Y-49988723D01*
X91293079Y-51068824D01*
X91065000Y-52215454D01*
X85660000Y-52215454D01*
X85660000Y-38866544D01*
X110645000Y-38866544D01*
X110645000Y-39133456D01*
X110697072Y-39395239D01*
X110799215Y-39641833D01*
X110947503Y-39863762D01*
X111136238Y-40052497D01*
X111358167Y-40200785D01*
X111525266Y-40270000D01*
X111358167Y-40339215D01*
X111136238Y-40487503D01*
X110947503Y-40676238D01*
X110799215Y-40898167D01*
X110697072Y-41144761D01*
X110645000Y-41406544D01*
X110645000Y-41673456D01*
X110697072Y-41935239D01*
X110799215Y-42181833D01*
X110947503Y-42403762D01*
X111136238Y-42592497D01*
X111358167Y-42740785D01*
X111525266Y-42810000D01*
X111358167Y-42879215D01*
X111136238Y-43027503D01*
X110947503Y-43216238D01*
X110799215Y-43438167D01*
X110697072Y-43684761D01*
X110645000Y-43946544D01*
X110645000Y-44213456D01*
X110697072Y-44475239D01*
X110799215Y-44721833D01*
X110947503Y-44943762D01*
X111136238Y-45132497D01*
X111358167Y-45280785D01*
X111604761Y-45382928D01*
X111866544Y-45435000D01*
X112133456Y-45435000D01*
X112395239Y-45382928D01*
X112641833Y-45280785D01*
X112863762Y-45132497D01*
X113052497Y-44943762D01*
X113200785Y-44721833D01*
X113302928Y-44475239D01*
X113355000Y-44213456D01*
X113355000Y-43946544D01*
X113302928Y-43684761D01*
X113200785Y-43438167D01*
X113052497Y-43216238D01*
X112863762Y-43027503D01*
X112641833Y-42879215D01*
X112474734Y-42810000D01*
X112641833Y-42740785D01*
X112863762Y-42592497D01*
X113052497Y-42403762D01*
X113120492Y-42302000D01*
X113184370Y-42302000D01*
X116242000Y-45359631D01*
X116242001Y-51615928D01*
X116154000Y-51615928D01*
X116029518Y-51628188D01*
X115909820Y-51664498D01*
X115799506Y-51723463D01*
X115702815Y-51802815D01*
X115623463Y-51899506D01*
X115564498Y-52009820D01*
X115528188Y-52129518D01*
X115515928Y-52254000D01*
X115515928Y-53954000D01*
X115528188Y-54078482D01*
X115564498Y-54198180D01*
X115623463Y-54308494D01*
X115702815Y-54405185D01*
X115799506Y-54484537D01*
X115909820Y-54543502D01*
X115990466Y-54567966D01*
X115906412Y-54643731D01*
X115732359Y-54877080D01*
X115607175Y-55139901D01*
X115562524Y-55287110D01*
X115683845Y-55517000D01*
X116877000Y-55517000D01*
X116877000Y-55497000D01*
X117131000Y-55497000D01*
X117131000Y-55517000D01*
X118324155Y-55517000D01*
X118360432Y-55448259D01*
X122745500Y-59833328D01*
X122745501Y-69815692D01*
X122742122Y-69850000D01*
X122745501Y-69884308D01*
X122745501Y-69884309D01*
X122747635Y-69905971D01*
X122755608Y-69986929D01*
X122795549Y-70118598D01*
X122860409Y-70239943D01*
X122925826Y-70319653D01*
X122925830Y-70319657D01*
X122947698Y-70346303D01*
X122974344Y-70368171D01*
X124516178Y-71910005D01*
X124001952Y-71697006D01*
X123338318Y-71565000D01*
X122661682Y-71565000D01*
X121998048Y-71697006D01*
X121372918Y-71955943D01*
X120810315Y-72331862D01*
X120331862Y-72810315D01*
X119955943Y-73372918D01*
X119697006Y-73998048D01*
X119565000Y-74661682D01*
X119565000Y-75338318D01*
X119697006Y-76001952D01*
X119955943Y-76627082D01*
X120331862Y-77189685D01*
X120810315Y-77668138D01*
X121372918Y-78044057D01*
X121998048Y-78302994D01*
X122661682Y-78435000D01*
X123338318Y-78435000D01*
X124001952Y-78302994D01*
X124627082Y-78044057D01*
X125189685Y-77668138D01*
X125668138Y-77189685D01*
X126044057Y-76627082D01*
X126302994Y-76001952D01*
X126435000Y-75338318D01*
X126435000Y-74661682D01*
X126302994Y-73998048D01*
X126089995Y-73483823D01*
X127317500Y-74711328D01*
X127317501Y-76673692D01*
X127314122Y-76708000D01*
X127327608Y-76844929D01*
X127367549Y-76976598D01*
X127432409Y-77097943D01*
X127497826Y-77177653D01*
X127497830Y-77177657D01*
X127519698Y-77204303D01*
X127546344Y-77226171D01*
X142729000Y-92408829D01*
X142729000Y-92557939D01*
X142768774Y-92757898D01*
X142846795Y-92946256D01*
X142960063Y-93115774D01*
X143104226Y-93259937D01*
X143273744Y-93373205D01*
X143462102Y-93451226D01*
X143662061Y-93491000D01*
X143865939Y-93491000D01*
X144065898Y-93451226D01*
X144254256Y-93373205D01*
X144423774Y-93259937D01*
X144567937Y-93115774D01*
X144681205Y-92946256D01*
X144759226Y-92757898D01*
X144799000Y-92557939D01*
X144799000Y-92354061D01*
X144792786Y-92322816D01*
X152299000Y-92322816D01*
X152299000Y-92625184D01*
X152357989Y-92921743D01*
X152473701Y-93201095D01*
X152641688Y-93452505D01*
X152855495Y-93666312D01*
X153106905Y-93834299D01*
X153386257Y-93950011D01*
X153682816Y-94009000D01*
X153985184Y-94009000D01*
X154281743Y-93950011D01*
X154561095Y-93834299D01*
X154812505Y-93666312D01*
X154878944Y-93599873D01*
X154884498Y-93618180D01*
X154943463Y-93728494D01*
X155022815Y-93825185D01*
X155119506Y-93904537D01*
X155229820Y-93963502D01*
X155349518Y-93999812D01*
X155474000Y-94012072D01*
X156088250Y-94009000D01*
X156247000Y-93850250D01*
X156247000Y-92601000D01*
X156501000Y-92601000D01*
X156501000Y-93850250D01*
X156659750Y-94009000D01*
X157274000Y-94012072D01*
X157398482Y-93999812D01*
X157518180Y-93963502D01*
X157628494Y-93904537D01*
X157725185Y-93825185D01*
X157804537Y-93728494D01*
X157863502Y-93618180D01*
X157899812Y-93498482D01*
X157912072Y-93374000D01*
X157909000Y-92759750D01*
X157750250Y-92601000D01*
X156501000Y-92601000D01*
X156247000Y-92601000D01*
X156227000Y-92601000D01*
X156227000Y-92347000D01*
X156247000Y-92347000D01*
X156247000Y-91097750D01*
X156501000Y-91097750D01*
X156501000Y-92347000D01*
X157750250Y-92347000D01*
X157909000Y-92188250D01*
X157912072Y-91574000D01*
X157899812Y-91449518D01*
X157863502Y-91329820D01*
X157804537Y-91219506D01*
X157725185Y-91122815D01*
X157628494Y-91043463D01*
X157518180Y-90984498D01*
X157398482Y-90948188D01*
X157274000Y-90935928D01*
X156659750Y-90939000D01*
X156501000Y-91097750D01*
X156247000Y-91097750D01*
X156088250Y-90939000D01*
X155474000Y-90935928D01*
X155349518Y-90948188D01*
X155229820Y-90984498D01*
X155119506Y-91043463D01*
X155022815Y-91122815D01*
X154943463Y-91219506D01*
X154884498Y-91329820D01*
X154878944Y-91348127D01*
X154812505Y-91281688D01*
X154561095Y-91113701D01*
X154281743Y-90997989D01*
X153985184Y-90939000D01*
X153682816Y-90939000D01*
X153386257Y-90997989D01*
X153106905Y-91113701D01*
X152855495Y-91281688D01*
X152641688Y-91495495D01*
X152473701Y-91746905D01*
X152357989Y-92026257D01*
X152299000Y-92322816D01*
X144792786Y-92322816D01*
X144759226Y-92154102D01*
X144681205Y-91965744D01*
X144567937Y-91796226D01*
X144423774Y-91652063D01*
X144254256Y-91538795D01*
X144065898Y-91460774D01*
X143865939Y-91421000D01*
X143716829Y-91421000D01*
X137407991Y-85112163D01*
X138071766Y-85587053D01*
X139984660Y-86754476D01*
X141977668Y-87779152D01*
X144040156Y-88655614D01*
X146161120Y-89379186D01*
X148329242Y-89946008D01*
X150532956Y-90353055D01*
X152760504Y-90598154D01*
X155000000Y-90680000D01*
X157239496Y-90598154D01*
X159467044Y-90353055D01*
X161670758Y-89946008D01*
X163838880Y-89379186D01*
X164522404Y-89146000D01*
X192155928Y-89146000D01*
X192168188Y-89270482D01*
X192204498Y-89390180D01*
X192263463Y-89500494D01*
X192342815Y-89597185D01*
X192439506Y-89676537D01*
X192549820Y-89735502D01*
X192669518Y-89771812D01*
X192794000Y-89784072D01*
X193008250Y-89781000D01*
X193167000Y-89622250D01*
X193167000Y-88773000D01*
X193421000Y-88773000D01*
X193421000Y-89622250D01*
X193579750Y-89781000D01*
X193794000Y-89784072D01*
X193918482Y-89771812D01*
X194038180Y-89735502D01*
X194148494Y-89676537D01*
X194245185Y-89597185D01*
X194324537Y-89500494D01*
X194383502Y-89390180D01*
X194419812Y-89270482D01*
X194432072Y-89146000D01*
X194429000Y-88931750D01*
X194270250Y-88773000D01*
X193421000Y-88773000D01*
X193167000Y-88773000D01*
X192317750Y-88773000D01*
X192159000Y-88931750D01*
X192155928Y-89146000D01*
X164522404Y-89146000D01*
X165959844Y-88655614D01*
X167159066Y-88146000D01*
X192155928Y-88146000D01*
X192159000Y-88360250D01*
X192317750Y-88519000D01*
X193167000Y-88519000D01*
X193167000Y-87669750D01*
X193421000Y-87669750D01*
X193421000Y-88519000D01*
X194270250Y-88519000D01*
X194429000Y-88360250D01*
X194432072Y-88146000D01*
X194419812Y-88021518D01*
X194383502Y-87901820D01*
X194324537Y-87791506D01*
X194245185Y-87694815D01*
X194148494Y-87615463D01*
X194038180Y-87556498D01*
X193918482Y-87520188D01*
X193794000Y-87507928D01*
X193579750Y-87511000D01*
X193421000Y-87669750D01*
X193167000Y-87669750D01*
X193008250Y-87511000D01*
X192794000Y-87507928D01*
X192669518Y-87520188D01*
X192549820Y-87556498D01*
X192439506Y-87615463D01*
X192342815Y-87694815D01*
X192263463Y-87791506D01*
X192204498Y-87901820D01*
X192168188Y-88021518D01*
X192155928Y-88146000D01*
X167159066Y-88146000D01*
X168022332Y-87779152D01*
X170015340Y-86754476D01*
X171928234Y-85587053D01*
X173750810Y-84283112D01*
X175473341Y-82849611D01*
X177086639Y-81294196D01*
X177165662Y-81206000D01*
X204836807Y-81206000D01*
X204840001Y-81238429D01*
X204840000Y-94173581D01*
X204836807Y-94206000D01*
X204849550Y-94335383D01*
X204887290Y-94459793D01*
X204948575Y-94574450D01*
X205031052Y-94674948D01*
X205131550Y-94757425D01*
X205246207Y-94818710D01*
X205370617Y-94856450D01*
X205500000Y-94869193D01*
X205532419Y-94866000D01*
X224967581Y-94866000D01*
X225000000Y-94869193D01*
X225032419Y-94866000D01*
X225129383Y-94856450D01*
X225253793Y-94818710D01*
X225368450Y-94757425D01*
X225468948Y-94674948D01*
X225551425Y-94574450D01*
X225612710Y-94459793D01*
X225650450Y-94335383D01*
X225663193Y-94206000D01*
X225660000Y-94173581D01*
X225660000Y-81238419D01*
X225663193Y-81206000D01*
X225650450Y-81076617D01*
X225612710Y-80952207D01*
X225551425Y-80837550D01*
X225468948Y-80737052D01*
X225368450Y-80654575D01*
X225253793Y-80593290D01*
X225129383Y-80555550D01*
X225032419Y-80546000D01*
X225000000Y-80542807D01*
X224967581Y-80546000D01*
X205532419Y-80546000D01*
X205500000Y-80542807D01*
X205467581Y-80546000D01*
X205370617Y-80555550D01*
X205246207Y-80593290D01*
X205131550Y-80654575D01*
X205031052Y-80737052D01*
X204948575Y-80837550D01*
X204887290Y-80952207D01*
X204849550Y-81076617D01*
X204836807Y-81206000D01*
X177165662Y-81206000D01*
X178582094Y-79625168D01*
X179951729Y-77851432D01*
X181188236Y-75982450D01*
X181929486Y-74661682D01*
X183565000Y-74661682D01*
X183565000Y-75338318D01*
X183697006Y-76001952D01*
X183955943Y-76627082D01*
X184331862Y-77189685D01*
X184810315Y-77668138D01*
X185372918Y-78044057D01*
X185998048Y-78302994D01*
X186661682Y-78435000D01*
X187338318Y-78435000D01*
X188001952Y-78302994D01*
X188627082Y-78044057D01*
X189189685Y-77668138D01*
X189668138Y-77189685D01*
X190044057Y-76627082D01*
X190302994Y-76001952D01*
X190435000Y-75338318D01*
X190435000Y-74661682D01*
X190302994Y-73998048D01*
X190044057Y-73372918D01*
X189668138Y-72810315D01*
X189189685Y-72331862D01*
X188627082Y-71955943D01*
X188001952Y-71697006D01*
X187626307Y-71622285D01*
X203165000Y-71622285D01*
X203165000Y-72377715D01*
X203312377Y-73118628D01*
X203601467Y-73816554D01*
X204021161Y-74444670D01*
X204555330Y-74978839D01*
X205183446Y-75398533D01*
X205881372Y-75687623D01*
X206622285Y-75835000D01*
X207377715Y-75835000D01*
X208118628Y-75687623D01*
X208816554Y-75398533D01*
X209444670Y-74978839D01*
X209978839Y-74444670D01*
X210398533Y-73816554D01*
X210687623Y-73118628D01*
X210835000Y-72377715D01*
X210835000Y-71622285D01*
X218165000Y-71622285D01*
X218165000Y-72377715D01*
X218312377Y-73118628D01*
X218601467Y-73816554D01*
X219021161Y-74444670D01*
X219555330Y-74978839D01*
X220183446Y-75398533D01*
X220881372Y-75687623D01*
X221622285Y-75835000D01*
X222377715Y-75835000D01*
X223118628Y-75687623D01*
X223816554Y-75398533D01*
X224444670Y-74978839D01*
X224978839Y-74444670D01*
X225398533Y-73816554D01*
X225687623Y-73118628D01*
X225835000Y-72377715D01*
X225835000Y-71622285D01*
X225687623Y-70881372D01*
X225398533Y-70183446D01*
X224978839Y-69555330D01*
X224444670Y-69021161D01*
X223816554Y-68601467D01*
X223118628Y-68312377D01*
X222377715Y-68165000D01*
X221622285Y-68165000D01*
X220881372Y-68312377D01*
X220183446Y-68601467D01*
X219555330Y-69021161D01*
X219021161Y-69555330D01*
X218601467Y-70183446D01*
X218312377Y-70881372D01*
X218165000Y-71622285D01*
X210835000Y-71622285D01*
X210687623Y-70881372D01*
X210398533Y-70183446D01*
X209978839Y-69555330D01*
X209444670Y-69021161D01*
X208816554Y-68601467D01*
X208118628Y-68312377D01*
X207377715Y-68165000D01*
X206622285Y-68165000D01*
X205881372Y-68312377D01*
X205183446Y-68601467D01*
X204555330Y-69021161D01*
X204021161Y-69555330D01*
X203601467Y-70183446D01*
X203312377Y-70881372D01*
X203165000Y-71622285D01*
X187626307Y-71622285D01*
X187338318Y-71565000D01*
X186661682Y-71565000D01*
X185998048Y-71697006D01*
X185372918Y-71955943D01*
X184810315Y-72331862D01*
X184331862Y-72810315D01*
X183955943Y-73372918D01*
X183697006Y-73998048D01*
X183565000Y-74661682D01*
X181929486Y-74661682D01*
X182285017Y-74028194D01*
X183236221Y-71999093D01*
X184036772Y-69905971D01*
X184682400Y-67759996D01*
X185111137Y-65835331D01*
X205328090Y-65835331D01*
X205328090Y-66164669D01*
X205392340Y-66487678D01*
X205518372Y-66791947D01*
X205701342Y-67065781D01*
X205934219Y-67298658D01*
X206208053Y-67481628D01*
X206512322Y-67607660D01*
X206835331Y-67671910D01*
X207164669Y-67671910D01*
X207487678Y-67607660D01*
X207791947Y-67481628D01*
X208065781Y-67298658D01*
X208298658Y-67065781D01*
X208481628Y-66791947D01*
X208607660Y-66487678D01*
X208671910Y-66164669D01*
X208671910Y-65835331D01*
X220328090Y-65835331D01*
X220328090Y-66164669D01*
X220392340Y-66487678D01*
X220518372Y-66791947D01*
X220701342Y-67065781D01*
X220934219Y-67298658D01*
X221208053Y-67481628D01*
X221512322Y-67607660D01*
X221835331Y-67671910D01*
X222164669Y-67671910D01*
X222487678Y-67607660D01*
X222791947Y-67481628D01*
X223065781Y-67298658D01*
X223298658Y-67065781D01*
X223481628Y-66791947D01*
X223607660Y-66487678D01*
X223671910Y-66164669D01*
X223671910Y-65835331D01*
X223607660Y-65512322D01*
X223481628Y-65208053D01*
X223298658Y-64934219D01*
X223065781Y-64701342D01*
X222791947Y-64518372D01*
X222487678Y-64392340D01*
X222164669Y-64328090D01*
X221835331Y-64328090D01*
X221512322Y-64392340D01*
X221208053Y-64518372D01*
X220934219Y-64701342D01*
X220701342Y-64934219D01*
X220518372Y-65208053D01*
X220392340Y-65512322D01*
X220328090Y-65835331D01*
X208671910Y-65835331D01*
X208607660Y-65512322D01*
X208481628Y-65208053D01*
X208298658Y-64934219D01*
X208065781Y-64701342D01*
X207791947Y-64518372D01*
X207487678Y-64392340D01*
X207164669Y-64328090D01*
X206835331Y-64328090D01*
X206512322Y-64392340D01*
X206208053Y-64518372D01*
X205934219Y-64701342D01*
X205701342Y-64934219D01*
X205518372Y-65208053D01*
X205392340Y-65512322D01*
X205328090Y-65835331D01*
X185111137Y-65835331D01*
X185169659Y-65572619D01*
X185495950Y-63355509D01*
X185659532Y-61120496D01*
X185659532Y-58879504D01*
X185495950Y-56644491D01*
X185169659Y-54427381D01*
X184682400Y-52240004D01*
X184036772Y-50094029D01*
X183809187Y-49498983D01*
X209593163Y-49498983D01*
X209593163Y-50501017D01*
X209777287Y-51485990D01*
X210139263Y-52420359D01*
X210666766Y-53272306D01*
X211341833Y-54012818D01*
X212141473Y-54616679D01*
X213038458Y-55063324D01*
X214002240Y-55337544D01*
X215000000Y-55430000D01*
X215997760Y-55337544D01*
X216961542Y-55063324D01*
X217858527Y-54616679D01*
X218658167Y-54012818D01*
X219333234Y-53272306D01*
X219860737Y-52420359D01*
X220222713Y-51485990D01*
X220406837Y-50501017D01*
X220406837Y-49498983D01*
X220222713Y-48514010D01*
X219860737Y-47579641D01*
X219333234Y-46727694D01*
X218658167Y-45987182D01*
X217858527Y-45383321D01*
X216961542Y-44936676D01*
X215997760Y-44662456D01*
X215000000Y-44570000D01*
X214002240Y-44662456D01*
X213038458Y-44936676D01*
X212141473Y-45383321D01*
X211341833Y-45987182D01*
X210666766Y-46727694D01*
X210139263Y-47579641D01*
X209777287Y-48514010D01*
X209593163Y-49498983D01*
X183809187Y-49498983D01*
X183236221Y-48000907D01*
X182285017Y-45971806D01*
X181188236Y-44017550D01*
X179951729Y-42148568D01*
X178582094Y-40374832D01*
X177086639Y-38705804D01*
X175614334Y-37286323D01*
X212830497Y-37286323D01*
X212830497Y-37713677D01*
X212913870Y-38132821D01*
X213077412Y-38527645D01*
X213314837Y-38882977D01*
X213617023Y-39185163D01*
X213972355Y-39422588D01*
X214367179Y-39586130D01*
X214786323Y-39669503D01*
X215213677Y-39669503D01*
X215632821Y-39586130D01*
X216027645Y-39422588D01*
X216382977Y-39185163D01*
X216685163Y-38882977D01*
X216922588Y-38527645D01*
X217086130Y-38132821D01*
X217169503Y-37713677D01*
X217169503Y-37286323D01*
X217086130Y-36867179D01*
X216922588Y-36472355D01*
X216685163Y-36117023D01*
X216382977Y-35814837D01*
X216027645Y-35577412D01*
X215632821Y-35413870D01*
X215213677Y-35330497D01*
X214786323Y-35330497D01*
X214367179Y-35413870D01*
X213972355Y-35577412D01*
X213617023Y-35814837D01*
X213314837Y-36117023D01*
X213077412Y-36472355D01*
X212913870Y-36867179D01*
X212830497Y-37286323D01*
X175614334Y-37286323D01*
X175473341Y-37150389D01*
X173750810Y-35716888D01*
X171928234Y-34412947D01*
X170015340Y-33245524D01*
X168022332Y-32220848D01*
X165959844Y-31344386D01*
X163838880Y-30620814D01*
X161670758Y-30053992D01*
X159467044Y-29646945D01*
X157239496Y-29401846D01*
X155000000Y-29320000D01*
X152760504Y-29401846D01*
X150532956Y-29646945D01*
X148329242Y-30053992D01*
X146161120Y-30620814D01*
X144040156Y-31344386D01*
X141977668Y-32220848D01*
X139984660Y-33245524D01*
X138071766Y-34412947D01*
X136249190Y-35716888D01*
X134526659Y-37150389D01*
X132913361Y-38705804D01*
X131417906Y-40374832D01*
X130048271Y-42148568D01*
X128811764Y-44017550D01*
X127714983Y-45971806D01*
X126763779Y-48000907D01*
X125963228Y-50094029D01*
X125317600Y-52240004D01*
X124830341Y-54427381D01*
X124504050Y-56644491D01*
X124340468Y-58879504D01*
X124340468Y-61120496D01*
X124504050Y-63355509D01*
X124830341Y-65572619D01*
X125317600Y-67759996D01*
X125963228Y-69905971D01*
X126763779Y-71999093D01*
X126925145Y-72343317D01*
X124142500Y-69560673D01*
X124142500Y-59578297D01*
X124145878Y-59543999D01*
X124142500Y-59509701D01*
X124142500Y-59509691D01*
X124132393Y-59407070D01*
X124092452Y-59275403D01*
X124027592Y-59154058D01*
X124027591Y-59154056D01*
X123962173Y-59074345D01*
X123962167Y-59074339D01*
X123940302Y-59047697D01*
X123913662Y-59025834D01*
X118492072Y-53604245D01*
X118492072Y-52254000D01*
X118479812Y-52129518D01*
X118443502Y-52009820D01*
X118384537Y-51899506D01*
X118305185Y-51802815D01*
X118208494Y-51723463D01*
X118098180Y-51664498D01*
X117978482Y-51628188D01*
X117854000Y-51615928D01*
X117766000Y-51615928D01*
X117766000Y-45081422D01*
X117769686Y-45043999D01*
X117766000Y-45006574D01*
X117754974Y-44894622D01*
X117711402Y-44750985D01*
X117640645Y-44618608D01*
X117545422Y-44502578D01*
X117516353Y-44478722D01*
X114065284Y-41027654D01*
X114041422Y-40998578D01*
X113925392Y-40903355D01*
X113793015Y-40832598D01*
X113649378Y-40789026D01*
X113537426Y-40778000D01*
X113537423Y-40778000D01*
X113500000Y-40774314D01*
X113462577Y-40778000D01*
X113120492Y-40778000D01*
X113052497Y-40676238D01*
X112863762Y-40487503D01*
X112641833Y-40339215D01*
X112474734Y-40270000D01*
X112641833Y-40200785D01*
X112863762Y-40052497D01*
X113052497Y-39863762D01*
X113200785Y-39641833D01*
X113302928Y-39395239D01*
X113355000Y-39133456D01*
X113355000Y-38866544D01*
X113302928Y-38604761D01*
X113200785Y-38358167D01*
X113052497Y-38136238D01*
X112863762Y-37947503D01*
X112641833Y-37799215D01*
X112395239Y-37697072D01*
X112133456Y-37645000D01*
X111866544Y-37645000D01*
X111604761Y-37697072D01*
X111358167Y-37799215D01*
X111136238Y-37947503D01*
X110947503Y-38136238D01*
X110799215Y-38358167D01*
X110697072Y-38604761D01*
X110645000Y-38866544D01*
X85660000Y-38866544D01*
X85660000Y-34866544D01*
X100645000Y-34866544D01*
X100645000Y-35133456D01*
X100697072Y-35395239D01*
X100799215Y-35641833D01*
X100947503Y-35863762D01*
X101136238Y-36052497D01*
X101358167Y-36200785D01*
X101604761Y-36302928D01*
X101866544Y-36355000D01*
X102133456Y-36355000D01*
X102395239Y-36302928D01*
X102641833Y-36200785D01*
X102863762Y-36052497D01*
X102980699Y-35935560D01*
X103784045Y-35935560D01*
X103845932Y-36171368D01*
X104087790Y-36284266D01*
X104347027Y-36347811D01*
X104613680Y-36359561D01*
X104877501Y-36319063D01*
X105128353Y-36227875D01*
X105234068Y-36171368D01*
X105295955Y-35935560D01*
X104540000Y-35179605D01*
X103784045Y-35935560D01*
X102980699Y-35935560D01*
X103052497Y-35863762D01*
X103200785Y-35641833D01*
X103270438Y-35473676D01*
X103312125Y-35588353D01*
X103368632Y-35694068D01*
X103604440Y-35755955D01*
X104360395Y-35000000D01*
X104719605Y-35000000D01*
X105475560Y-35755955D01*
X105711368Y-35694068D01*
X105811764Y-35478993D01*
X105879215Y-35641833D01*
X106027503Y-35863762D01*
X106216238Y-36052497D01*
X106438167Y-36200785D01*
X106684761Y-36302928D01*
X106946544Y-36355000D01*
X107213456Y-36355000D01*
X107475239Y-36302928D01*
X107721833Y-36200785D01*
X107943762Y-36052497D01*
X108132497Y-35863762D01*
X108280785Y-35641833D01*
X108382928Y-35395239D01*
X108435000Y-35133456D01*
X108435000Y-34866544D01*
X108382928Y-34604761D01*
X108280785Y-34358167D01*
X108132497Y-34136238D01*
X107943762Y-33947503D01*
X107942327Y-33946544D01*
X110645000Y-33946544D01*
X110645000Y-34213456D01*
X110697072Y-34475239D01*
X110799215Y-34721833D01*
X110947503Y-34943762D01*
X111136238Y-35132497D01*
X111358167Y-35280785D01*
X111604761Y-35382928D01*
X111866544Y-35435000D01*
X112133456Y-35435000D01*
X112395239Y-35382928D01*
X112641833Y-35280785D01*
X112863762Y-35132497D01*
X113052497Y-34943762D01*
X113200785Y-34721833D01*
X113302928Y-34475239D01*
X113355000Y-34213456D01*
X113355000Y-33946544D01*
X113302928Y-33684761D01*
X113200785Y-33438167D01*
X113052497Y-33216238D01*
X112863762Y-33027503D01*
X112641833Y-32879215D01*
X112473676Y-32809562D01*
X112588353Y-32767875D01*
X112694068Y-32711368D01*
X112755955Y-32475560D01*
X112000000Y-31719605D01*
X111244045Y-32475560D01*
X111305932Y-32711368D01*
X111521007Y-32811764D01*
X111358167Y-32879215D01*
X111136238Y-33027503D01*
X110947503Y-33216238D01*
X110799215Y-33438167D01*
X110697072Y-33684761D01*
X110645000Y-33946544D01*
X107942327Y-33946544D01*
X107721833Y-33799215D01*
X107475239Y-33697072D01*
X107213456Y-33645000D01*
X106946544Y-33645000D01*
X106684761Y-33697072D01*
X106438167Y-33799215D01*
X106216238Y-33947503D01*
X106027503Y-34136238D01*
X105879215Y-34358167D01*
X105809562Y-34526324D01*
X105767875Y-34411647D01*
X105711368Y-34305932D01*
X105475560Y-34244045D01*
X104719605Y-35000000D01*
X104360395Y-35000000D01*
X103604440Y-34244045D01*
X103368632Y-34305932D01*
X103268236Y-34521007D01*
X103200785Y-34358167D01*
X103052497Y-34136238D01*
X102980699Y-34064440D01*
X103784045Y-34064440D01*
X104540000Y-34820395D01*
X105295955Y-34064440D01*
X105234068Y-33828632D01*
X104992210Y-33715734D01*
X104732973Y-33652189D01*
X104466320Y-33640439D01*
X104202499Y-33680937D01*
X103951647Y-33772125D01*
X103845932Y-33828632D01*
X103784045Y-34064440D01*
X102980699Y-34064440D01*
X102863762Y-33947503D01*
X102641833Y-33799215D01*
X102395239Y-33697072D01*
X102133456Y-33645000D01*
X101866544Y-33645000D01*
X101604761Y-33697072D01*
X101358167Y-33799215D01*
X101136238Y-33947503D01*
X100947503Y-34136238D01*
X100799215Y-34358167D01*
X100697072Y-34604761D01*
X100645000Y-34866544D01*
X85660000Y-34866544D01*
X85660000Y-31613680D01*
X110640439Y-31613680D01*
X110680937Y-31877501D01*
X110772125Y-32128353D01*
X110828632Y-32234068D01*
X111064440Y-32295955D01*
X111820395Y-31540000D01*
X112179605Y-31540000D01*
X112935560Y-32295955D01*
X113171368Y-32234068D01*
X113284266Y-31992210D01*
X113347811Y-31732973D01*
X113359561Y-31466320D01*
X113319063Y-31202499D01*
X113227875Y-30951647D01*
X113171368Y-30845932D01*
X112935560Y-30784045D01*
X112179605Y-31540000D01*
X111820395Y-31540000D01*
X111064440Y-30784045D01*
X110828632Y-30845932D01*
X110715734Y-31087790D01*
X110652189Y-31347027D01*
X110640439Y-31613680D01*
X85660000Y-31613680D01*
X85660000Y-28792652D01*
X85941331Y-28980631D01*
X86348075Y-29149110D01*
X86779872Y-29235000D01*
X87220128Y-29235000D01*
X87651925Y-29149110D01*
X88058669Y-28980631D01*
X88229412Y-28866544D01*
X110645000Y-28866544D01*
X110645000Y-29133456D01*
X110697072Y-29395239D01*
X110799215Y-29641833D01*
X110947503Y-29863762D01*
X111136238Y-30052497D01*
X111358167Y-30200785D01*
X111526324Y-30270438D01*
X111411647Y-30312125D01*
X111305932Y-30368632D01*
X111244045Y-30604440D01*
X112000000Y-31360395D01*
X112755955Y-30604440D01*
X112694068Y-30368632D01*
X112478993Y-30268236D01*
X112641833Y-30200785D01*
X112863762Y-30052497D01*
X113052497Y-29863762D01*
X113200785Y-29641833D01*
X113302928Y-29395239D01*
X113355000Y-29133456D01*
X113355000Y-28866544D01*
X113302928Y-28604761D01*
X113200785Y-28358167D01*
X113052497Y-28136238D01*
X112863762Y-27947503D01*
X112641833Y-27799215D01*
X112395239Y-27697072D01*
X112133456Y-27645000D01*
X111866544Y-27645000D01*
X111604761Y-27697072D01*
X111358167Y-27799215D01*
X111136238Y-27947503D01*
X110947503Y-28136238D01*
X110799215Y-28358167D01*
X110697072Y-28604761D01*
X110645000Y-28866544D01*
X88229412Y-28866544D01*
X88424729Y-28736038D01*
X88736038Y-28424729D01*
X88980631Y-28058669D01*
X89149110Y-27651925D01*
X89235000Y-27220128D01*
X89235000Y-26854000D01*
X191969928Y-26854000D01*
X191969928Y-28554000D01*
X191982188Y-28678482D01*
X192018498Y-28798180D01*
X192077463Y-28908494D01*
X192156815Y-29005185D01*
X192253506Y-29084537D01*
X192363820Y-29143502D01*
X192436380Y-29165513D01*
X192304525Y-29297368D01*
X192142010Y-29540589D01*
X192030068Y-29810842D01*
X191973000Y-30097740D01*
X191973000Y-30390260D01*
X192030068Y-30677158D01*
X192142010Y-30947411D01*
X192304525Y-31190632D01*
X192511368Y-31397475D01*
X192754589Y-31559990D01*
X193024842Y-31671932D01*
X193311740Y-31729000D01*
X193604260Y-31729000D01*
X193891158Y-31671932D01*
X194161411Y-31559990D01*
X194404632Y-31397475D01*
X194611475Y-31190632D01*
X194773990Y-30947411D01*
X194885932Y-30677158D01*
X194943000Y-30390260D01*
X194943000Y-30097740D01*
X194885932Y-29810842D01*
X194773990Y-29540589D01*
X194611475Y-29297368D01*
X194479620Y-29165513D01*
X194552180Y-29143502D01*
X194662494Y-29084537D01*
X194759185Y-29005185D01*
X194838537Y-28908494D01*
X194897502Y-28798180D01*
X194933812Y-28678482D01*
X194946072Y-28554000D01*
X194946072Y-26854000D01*
X194933812Y-26729518D01*
X194897502Y-26609820D01*
X194838537Y-26499506D01*
X194759185Y-26402815D01*
X194662494Y-26323463D01*
X194552180Y-26264498D01*
X194432482Y-26228188D01*
X194308000Y-26215928D01*
X192608000Y-26215928D01*
X192483518Y-26228188D01*
X192363820Y-26264498D01*
X192253506Y-26323463D01*
X192156815Y-26402815D01*
X192077463Y-26499506D01*
X192018498Y-26609820D01*
X191982188Y-26729518D01*
X191969928Y-26854000D01*
X89235000Y-26854000D01*
X89235000Y-26779872D01*
X89149110Y-26348075D01*
X88980631Y-25941331D01*
X88792652Y-25660000D01*
X231207348Y-25660000D01*
X231019369Y-25941331D01*
G04 #@! TA.AperFunction,Conductor*
D22*
G36*
X231019369Y-25941331D02*
G01*
X230850890Y-26348075D01*
X230765000Y-26779872D01*
X230765000Y-27220128D01*
X230850890Y-27651925D01*
X231019369Y-28058669D01*
X231263962Y-28424729D01*
X231575271Y-28736038D01*
X231941331Y-28980631D01*
X232348075Y-29149110D01*
X232779872Y-29235000D01*
X233220128Y-29235000D01*
X233651925Y-29149110D01*
X234058669Y-28980631D01*
X234340001Y-28792651D01*
X234340000Y-96207348D01*
X234058669Y-96019369D01*
X233651925Y-95850890D01*
X233220128Y-95765000D01*
X232779872Y-95765000D01*
X232348075Y-95850890D01*
X231941331Y-96019369D01*
X231575271Y-96263962D01*
X231263962Y-96575271D01*
X231019369Y-96941331D01*
X230850890Y-97348075D01*
X230765000Y-97779872D01*
X230765000Y-98220128D01*
X230850890Y-98651925D01*
X231019369Y-99058669D01*
X231207348Y-99340000D01*
X88792652Y-99340000D01*
X88980631Y-99058669D01*
X89149110Y-98651925D01*
X89235000Y-98220128D01*
X89235000Y-97779872D01*
X89149110Y-97348075D01*
X88980631Y-96941331D01*
X88949551Y-96894816D01*
X152299000Y-96894816D01*
X152299000Y-97197184D01*
X152357989Y-97493743D01*
X152473701Y-97773095D01*
X152641688Y-98024505D01*
X152855495Y-98238312D01*
X153106905Y-98406299D01*
X153386257Y-98522011D01*
X153682816Y-98581000D01*
X153985184Y-98581000D01*
X154281743Y-98522011D01*
X154561095Y-98406299D01*
X154812505Y-98238312D01*
X154878944Y-98171873D01*
X154884498Y-98190180D01*
X154943463Y-98300494D01*
X155022815Y-98397185D01*
X155119506Y-98476537D01*
X155229820Y-98535502D01*
X155349518Y-98571812D01*
X155474000Y-98584072D01*
X156088250Y-98581000D01*
X156247000Y-98422250D01*
X156247000Y-97173000D01*
X156501000Y-97173000D01*
X156501000Y-98422250D01*
X156659750Y-98581000D01*
X157274000Y-98584072D01*
X157398482Y-98571812D01*
X157518180Y-98535502D01*
X157628494Y-98476537D01*
X157725185Y-98397185D01*
X157804537Y-98300494D01*
X157863502Y-98190180D01*
X157899812Y-98070482D01*
X157912072Y-97946000D01*
X157909000Y-97331750D01*
X157750250Y-97173000D01*
X156501000Y-97173000D01*
X156247000Y-97173000D01*
X156227000Y-97173000D01*
X156227000Y-96919000D01*
X156247000Y-96919000D01*
X156247000Y-95669750D01*
X156501000Y-95669750D01*
X156501000Y-96919000D01*
X157750250Y-96919000D01*
X157909000Y-96760250D01*
X157912072Y-96146000D01*
X157899812Y-96021518D01*
X157863502Y-95901820D01*
X157804537Y-95791506D01*
X157725185Y-95694815D01*
X157628494Y-95615463D01*
X157518180Y-95556498D01*
X157398482Y-95520188D01*
X157274000Y-95507928D01*
X156659750Y-95511000D01*
X156501000Y-95669750D01*
X156247000Y-95669750D01*
X156088250Y-95511000D01*
X155474000Y-95507928D01*
X155349518Y-95520188D01*
X155229820Y-95556498D01*
X155119506Y-95615463D01*
X155022815Y-95694815D01*
X154943463Y-95791506D01*
X154884498Y-95901820D01*
X154878944Y-95920127D01*
X154812505Y-95853688D01*
X154561095Y-95685701D01*
X154281743Y-95569989D01*
X153985184Y-95511000D01*
X153682816Y-95511000D01*
X153386257Y-95569989D01*
X153106905Y-95685701D01*
X152855495Y-95853688D01*
X152641688Y-96067495D01*
X152473701Y-96318905D01*
X152357989Y-96598257D01*
X152299000Y-96894816D01*
X88949551Y-96894816D01*
X88736038Y-96575271D01*
X88424729Y-96263962D01*
X88058669Y-96019369D01*
X87651925Y-95850890D01*
X87220128Y-95765000D01*
X86779872Y-95765000D01*
X86348075Y-95850890D01*
X85941331Y-96019369D01*
X85660000Y-96207348D01*
X85660000Y-87306000D01*
X115261928Y-87306000D01*
X115261928Y-89006000D01*
X115274188Y-89130482D01*
X115310498Y-89250180D01*
X115369463Y-89360494D01*
X115448815Y-89457185D01*
X115545506Y-89536537D01*
X115655820Y-89595502D01*
X115775518Y-89631812D01*
X115900000Y-89644072D01*
X117600000Y-89644072D01*
X117724482Y-89631812D01*
X117844180Y-89595502D01*
X117954494Y-89536537D01*
X118051185Y-89457185D01*
X118130537Y-89360494D01*
X118189502Y-89250180D01*
X118211513Y-89177620D01*
X118343368Y-89309475D01*
X118586589Y-89471990D01*
X118856842Y-89583932D01*
X119143740Y-89641000D01*
X119436260Y-89641000D01*
X119723158Y-89583932D01*
X119993411Y-89471990D01*
X120236632Y-89309475D01*
X120443475Y-89102632D01*
X120560000Y-88928240D01*
X120676525Y-89102632D01*
X120883368Y-89309475D01*
X121126589Y-89471990D01*
X121396842Y-89583932D01*
X121683740Y-89641000D01*
X121976260Y-89641000D01*
X122263158Y-89583932D01*
X122533411Y-89471990D01*
X122776632Y-89309475D01*
X122983475Y-89102632D01*
X123100000Y-88928240D01*
X123216525Y-89102632D01*
X123423368Y-89309475D01*
X123666589Y-89471990D01*
X123936842Y-89583932D01*
X124223740Y-89641000D01*
X124516260Y-89641000D01*
X124803158Y-89583932D01*
X125073411Y-89471990D01*
X125316632Y-89309475D01*
X125523475Y-89102632D01*
X125640000Y-88928240D01*
X125756525Y-89102632D01*
X125963368Y-89309475D01*
X126206589Y-89471990D01*
X126476842Y-89583932D01*
X126763740Y-89641000D01*
X127056260Y-89641000D01*
X127343158Y-89583932D01*
X127613411Y-89471990D01*
X127856632Y-89309475D01*
X128063475Y-89102632D01*
X128225990Y-88859411D01*
X128337932Y-88589158D01*
X128353102Y-88512890D01*
X129278524Y-88512890D01*
X129323175Y-88660099D01*
X129448359Y-88922920D01*
X129622412Y-89156269D01*
X129838645Y-89351178D01*
X130088748Y-89500157D01*
X130363109Y-89597481D01*
X130593000Y-89476814D01*
X130593000Y-88283000D01*
X130847000Y-88283000D01*
X130847000Y-89476814D01*
X131076891Y-89597481D01*
X131351252Y-89500157D01*
X131601355Y-89351178D01*
X131817588Y-89156269D01*
X131991641Y-88922920D01*
X132116825Y-88660099D01*
X132161476Y-88512890D01*
X132040155Y-88283000D01*
X130847000Y-88283000D01*
X130593000Y-88283000D01*
X129399845Y-88283000D01*
X129278524Y-88512890D01*
X128353102Y-88512890D01*
X128395000Y-88302260D01*
X128395000Y-88009740D01*
X128337932Y-87722842D01*
X128225990Y-87452589D01*
X128063475Y-87209368D01*
X127856632Y-87002525D01*
X127613411Y-86840010D01*
X127343158Y-86728068D01*
X127056260Y-86671000D01*
X126763740Y-86671000D01*
X126476842Y-86728068D01*
X126206589Y-86840010D01*
X125963368Y-87002525D01*
X125756525Y-87209368D01*
X125640000Y-87383760D01*
X125523475Y-87209368D01*
X125316632Y-87002525D01*
X125073411Y-86840010D01*
X124803158Y-86728068D01*
X124516260Y-86671000D01*
X124223740Y-86671000D01*
X123936842Y-86728068D01*
X123666589Y-86840010D01*
X123423368Y-87002525D01*
X123216525Y-87209368D01*
X123100000Y-87383760D01*
X122983475Y-87209368D01*
X122776632Y-87002525D01*
X122533411Y-86840010D01*
X122263158Y-86728068D01*
X121976260Y-86671000D01*
X121683740Y-86671000D01*
X121396842Y-86728068D01*
X121126589Y-86840010D01*
X120883368Y-87002525D01*
X120676525Y-87209368D01*
X120560000Y-87383760D01*
X120443475Y-87209368D01*
X120236632Y-87002525D01*
X119993411Y-86840010D01*
X119723158Y-86728068D01*
X119436260Y-86671000D01*
X119143740Y-86671000D01*
X118856842Y-86728068D01*
X118586589Y-86840010D01*
X118343368Y-87002525D01*
X118211513Y-87134380D01*
X118189502Y-87061820D01*
X118130537Y-86951506D01*
X118051185Y-86854815D01*
X117954494Y-86775463D01*
X117844180Y-86716498D01*
X117724482Y-86680188D01*
X117600000Y-86667928D01*
X115900000Y-86667928D01*
X115775518Y-86680188D01*
X115655820Y-86716498D01*
X115545506Y-86775463D01*
X115448815Y-86854815D01*
X115369463Y-86951506D01*
X115310498Y-87061820D01*
X115274188Y-87181518D01*
X115261928Y-87306000D01*
X85660000Y-87306000D01*
X85660000Y-84766000D01*
X129231928Y-84766000D01*
X129231928Y-86466000D01*
X129244188Y-86590482D01*
X129280498Y-86710180D01*
X129339463Y-86820494D01*
X129418815Y-86917185D01*
X129515506Y-86996537D01*
X129625820Y-87055502D01*
X129706466Y-87079966D01*
X129622412Y-87155731D01*
X129448359Y-87389080D01*
X129323175Y-87651901D01*
X129278524Y-87799110D01*
X129399845Y-88029000D01*
X130593000Y-88029000D01*
X130593000Y-88009000D01*
X130847000Y-88009000D01*
X130847000Y-88029000D01*
X132040155Y-88029000D01*
X132161476Y-87799110D01*
X132116825Y-87651901D01*
X131991641Y-87389080D01*
X131817588Y-87155731D01*
X131733534Y-87079966D01*
X131814180Y-87055502D01*
X131924494Y-86996537D01*
X132021185Y-86917185D01*
X132100537Y-86820494D01*
X132159502Y-86710180D01*
X132195812Y-86590482D01*
X132208072Y-86466000D01*
X132208072Y-84766000D01*
X132195812Y-84641518D01*
X132159502Y-84521820D01*
X132100537Y-84411506D01*
X132021185Y-84314815D01*
X131924494Y-84235463D01*
X131814180Y-84176498D01*
X131694482Y-84140188D01*
X131570000Y-84127928D01*
X129870000Y-84127928D01*
X129745518Y-84140188D01*
X129625820Y-84176498D01*
X129515506Y-84235463D01*
X129418815Y-84314815D01*
X129339463Y-84411506D01*
X129280498Y-84521820D01*
X129244188Y-84641518D01*
X129231928Y-84766000D01*
X85660000Y-84766000D01*
X85660000Y-76193552D01*
X92986053Y-76193552D01*
X93598155Y-76898303D01*
X94619133Y-77467851D01*
X95731605Y-77827272D01*
X96892822Y-77962754D01*
X98058156Y-77869090D01*
X99182827Y-77549881D01*
X100223612Y-77017394D01*
X100401845Y-76898303D01*
X101013947Y-76193552D01*
X97000000Y-72179605D01*
X92986053Y-76193552D01*
X85660000Y-76193552D01*
X85660000Y-71892822D01*
X91037246Y-71892822D01*
X91130910Y-73058156D01*
X91450119Y-74182827D01*
X91982606Y-75223612D01*
X92101697Y-75401845D01*
X92806448Y-76013947D01*
X96820395Y-72000000D01*
X97179605Y-72000000D01*
X101193552Y-76013947D01*
X101898303Y-75401845D01*
X102467851Y-74380867D01*
X102827272Y-73268395D01*
X102962754Y-72107178D01*
X102869090Y-70941844D01*
X102549881Y-69817173D01*
X102017394Y-68776388D01*
X101898303Y-68598155D01*
X101193552Y-67986053D01*
X97179605Y-72000000D01*
X96820395Y-72000000D01*
X92806448Y-67986053D01*
X92101697Y-68598155D01*
X91532149Y-69619133D01*
X91172728Y-70731605D01*
X91037246Y-71892822D01*
X85660000Y-71892822D01*
X85660000Y-67806448D01*
X92986053Y-67806448D01*
X97000000Y-71820395D01*
X101013947Y-67806448D01*
X100401845Y-67101697D01*
X99380867Y-66532149D01*
X98268395Y-66172728D01*
X97107178Y-66037246D01*
X95941844Y-66130910D01*
X94817173Y-66450119D01*
X93776388Y-66982606D01*
X93598155Y-67101697D01*
X92986053Y-67806448D01*
X85660000Y-67806448D01*
X85660000Y-52215454D01*
X91065000Y-52215454D01*
X91065000Y-53384546D01*
X91293079Y-54531176D01*
X91740471Y-55611277D01*
X92389984Y-56583342D01*
X93216658Y-57410016D01*
X94188723Y-58059529D01*
X95268824Y-58506921D01*
X96415454Y-58735000D01*
X97584546Y-58735000D01*
X98731176Y-58506921D01*
X99811277Y-58059529D01*
X100783342Y-57410016D01*
X101610016Y-56583342D01*
X101999197Y-56000890D01*
X115562524Y-56000890D01*
X115607175Y-56148099D01*
X115732359Y-56410920D01*
X115906412Y-56644269D01*
X116122645Y-56839178D01*
X116372748Y-56988157D01*
X116647109Y-57085481D01*
X116877000Y-56964814D01*
X116877000Y-55771000D01*
X117131000Y-55771000D01*
X117131000Y-56964814D01*
X117360891Y-57085481D01*
X117635252Y-56988157D01*
X117885355Y-56839178D01*
X118101588Y-56644269D01*
X118275641Y-56410920D01*
X118400825Y-56148099D01*
X118445476Y-56000890D01*
X118324155Y-55771000D01*
X117131000Y-55771000D01*
X116877000Y-55771000D01*
X115683845Y-55771000D01*
X115562524Y-56000890D01*
X101999197Y-56000890D01*
X102259529Y-55611277D01*
X102706921Y-54531176D01*
X102935000Y-53384546D01*
X102935000Y-52215454D01*
X102706921Y-51068824D01*
X102259529Y-49988723D01*
X101610016Y-49016658D01*
X100783342Y-48189984D01*
X99811277Y-47540471D01*
X98731176Y-47093079D01*
X97584546Y-46865000D01*
X96415454Y-46865000D01*
X95268824Y-47093079D01*
X94188723Y-47540471D01*
X93216658Y-48189984D01*
X92389984Y-49016658D01*
X91740471Y-49988723D01*
X91293079Y-51068824D01*
X91065000Y-52215454D01*
X85660000Y-52215454D01*
X85660000Y-38866544D01*
X110645000Y-38866544D01*
X110645000Y-39133456D01*
X110697072Y-39395239D01*
X110799215Y-39641833D01*
X110947503Y-39863762D01*
X111136238Y-40052497D01*
X111358167Y-40200785D01*
X111525266Y-40270000D01*
X111358167Y-40339215D01*
X111136238Y-40487503D01*
X110947503Y-40676238D01*
X110799215Y-40898167D01*
X110697072Y-41144761D01*
X110645000Y-41406544D01*
X110645000Y-41673456D01*
X110697072Y-41935239D01*
X110799215Y-42181833D01*
X110947503Y-42403762D01*
X111136238Y-42592497D01*
X111358167Y-42740785D01*
X111525266Y-42810000D01*
X111358167Y-42879215D01*
X111136238Y-43027503D01*
X110947503Y-43216238D01*
X110799215Y-43438167D01*
X110697072Y-43684761D01*
X110645000Y-43946544D01*
X110645000Y-44213456D01*
X110697072Y-44475239D01*
X110799215Y-44721833D01*
X110947503Y-44943762D01*
X111136238Y-45132497D01*
X111358167Y-45280785D01*
X111604761Y-45382928D01*
X111866544Y-45435000D01*
X112133456Y-45435000D01*
X112395239Y-45382928D01*
X112641833Y-45280785D01*
X112863762Y-45132497D01*
X113052497Y-44943762D01*
X113200785Y-44721833D01*
X113302928Y-44475239D01*
X113355000Y-44213456D01*
X113355000Y-43946544D01*
X113302928Y-43684761D01*
X113200785Y-43438167D01*
X113052497Y-43216238D01*
X112863762Y-43027503D01*
X112641833Y-42879215D01*
X112474734Y-42810000D01*
X112641833Y-42740785D01*
X112863762Y-42592497D01*
X113052497Y-42403762D01*
X113120492Y-42302000D01*
X113184370Y-42302000D01*
X116242000Y-45359631D01*
X116242001Y-51615928D01*
X116154000Y-51615928D01*
X116029518Y-51628188D01*
X115909820Y-51664498D01*
X115799506Y-51723463D01*
X115702815Y-51802815D01*
X115623463Y-51899506D01*
X115564498Y-52009820D01*
X115528188Y-52129518D01*
X115515928Y-52254000D01*
X115515928Y-53954000D01*
X115528188Y-54078482D01*
X115564498Y-54198180D01*
X115623463Y-54308494D01*
X115702815Y-54405185D01*
X115799506Y-54484537D01*
X115909820Y-54543502D01*
X115990466Y-54567966D01*
X115906412Y-54643731D01*
X115732359Y-54877080D01*
X115607175Y-55139901D01*
X115562524Y-55287110D01*
X115683845Y-55517000D01*
X116877000Y-55517000D01*
X116877000Y-55497000D01*
X117131000Y-55497000D01*
X117131000Y-55517000D01*
X118324155Y-55517000D01*
X118360432Y-55448259D01*
X122745500Y-59833328D01*
X122745501Y-69815692D01*
X122742122Y-69850000D01*
X122745501Y-69884308D01*
X122745501Y-69884309D01*
X122747635Y-69905971D01*
X122755608Y-69986929D01*
X122795549Y-70118598D01*
X122860409Y-70239943D01*
X122925826Y-70319653D01*
X122925830Y-70319657D01*
X122947698Y-70346303D01*
X122974344Y-70368171D01*
X124516178Y-71910005D01*
X124001952Y-71697006D01*
X123338318Y-71565000D01*
X122661682Y-71565000D01*
X121998048Y-71697006D01*
X121372918Y-71955943D01*
X120810315Y-72331862D01*
X120331862Y-72810315D01*
X119955943Y-73372918D01*
X119697006Y-73998048D01*
X119565000Y-74661682D01*
X119565000Y-75338318D01*
X119697006Y-76001952D01*
X119955943Y-76627082D01*
X120331862Y-77189685D01*
X120810315Y-77668138D01*
X121372918Y-78044057D01*
X121998048Y-78302994D01*
X122661682Y-78435000D01*
X123338318Y-78435000D01*
X124001952Y-78302994D01*
X124627082Y-78044057D01*
X125189685Y-77668138D01*
X125668138Y-77189685D01*
X126044057Y-76627082D01*
X126302994Y-76001952D01*
X126435000Y-75338318D01*
X126435000Y-74661682D01*
X126302994Y-73998048D01*
X126089995Y-73483823D01*
X127317500Y-74711328D01*
X127317501Y-76673692D01*
X127314122Y-76708000D01*
X127327608Y-76844929D01*
X127367549Y-76976598D01*
X127432409Y-77097943D01*
X127497826Y-77177653D01*
X127497830Y-77177657D01*
X127519698Y-77204303D01*
X127546344Y-77226171D01*
X142729000Y-92408829D01*
X142729000Y-92557939D01*
X142768774Y-92757898D01*
X142846795Y-92946256D01*
X142960063Y-93115774D01*
X143104226Y-93259937D01*
X143273744Y-93373205D01*
X143462102Y-93451226D01*
X143662061Y-93491000D01*
X143865939Y-93491000D01*
X144065898Y-93451226D01*
X144254256Y-93373205D01*
X144423774Y-93259937D01*
X144567937Y-93115774D01*
X144681205Y-92946256D01*
X144759226Y-92757898D01*
X144799000Y-92557939D01*
X144799000Y-92354061D01*
X144792786Y-92322816D01*
X152299000Y-92322816D01*
X152299000Y-92625184D01*
X152357989Y-92921743D01*
X152473701Y-93201095D01*
X152641688Y-93452505D01*
X152855495Y-93666312D01*
X153106905Y-93834299D01*
X153386257Y-93950011D01*
X153682816Y-94009000D01*
X153985184Y-94009000D01*
X154281743Y-93950011D01*
X154561095Y-93834299D01*
X154812505Y-93666312D01*
X154878944Y-93599873D01*
X154884498Y-93618180D01*
X154943463Y-93728494D01*
X155022815Y-93825185D01*
X155119506Y-93904537D01*
X155229820Y-93963502D01*
X155349518Y-93999812D01*
X155474000Y-94012072D01*
X156088250Y-94009000D01*
X156247000Y-93850250D01*
X156247000Y-92601000D01*
X156501000Y-92601000D01*
X156501000Y-93850250D01*
X156659750Y-94009000D01*
X157274000Y-94012072D01*
X157398482Y-93999812D01*
X157518180Y-93963502D01*
X157628494Y-93904537D01*
X157725185Y-93825185D01*
X157804537Y-93728494D01*
X157863502Y-93618180D01*
X157899812Y-93498482D01*
X157912072Y-93374000D01*
X157909000Y-92759750D01*
X157750250Y-92601000D01*
X156501000Y-92601000D01*
X156247000Y-92601000D01*
X156227000Y-92601000D01*
X156227000Y-92347000D01*
X156247000Y-92347000D01*
X156247000Y-91097750D01*
X156501000Y-91097750D01*
X156501000Y-92347000D01*
X157750250Y-92347000D01*
X157909000Y-92188250D01*
X157912072Y-91574000D01*
X157899812Y-91449518D01*
X157863502Y-91329820D01*
X157804537Y-91219506D01*
X157725185Y-91122815D01*
X157628494Y-91043463D01*
X157518180Y-90984498D01*
X157398482Y-90948188D01*
X157274000Y-90935928D01*
X156659750Y-90939000D01*
X156501000Y-91097750D01*
X156247000Y-91097750D01*
X156088250Y-90939000D01*
X155474000Y-90935928D01*
X155349518Y-90948188D01*
X155229820Y-90984498D01*
X155119506Y-91043463D01*
X155022815Y-91122815D01*
X154943463Y-91219506D01*
X154884498Y-91329820D01*
X154878944Y-91348127D01*
X154812505Y-91281688D01*
X154561095Y-91113701D01*
X154281743Y-90997989D01*
X153985184Y-90939000D01*
X153682816Y-90939000D01*
X153386257Y-90997989D01*
X153106905Y-91113701D01*
X152855495Y-91281688D01*
X152641688Y-91495495D01*
X152473701Y-91746905D01*
X152357989Y-92026257D01*
X152299000Y-92322816D01*
X144792786Y-92322816D01*
X144759226Y-92154102D01*
X144681205Y-91965744D01*
X144567937Y-91796226D01*
X144423774Y-91652063D01*
X144254256Y-91538795D01*
X144065898Y-91460774D01*
X143865939Y-91421000D01*
X143716829Y-91421000D01*
X137407991Y-85112163D01*
X138071766Y-85587053D01*
X139984660Y-86754476D01*
X141977668Y-87779152D01*
X144040156Y-88655614D01*
X146161120Y-89379186D01*
X148329242Y-89946008D01*
X150532956Y-90353055D01*
X152760504Y-90598154D01*
X155000000Y-90680000D01*
X157239496Y-90598154D01*
X159467044Y-90353055D01*
X161670758Y-89946008D01*
X163838880Y-89379186D01*
X164522404Y-89146000D01*
X192155928Y-89146000D01*
X192168188Y-89270482D01*
X192204498Y-89390180D01*
X192263463Y-89500494D01*
X192342815Y-89597185D01*
X192439506Y-89676537D01*
X192549820Y-89735502D01*
X192669518Y-89771812D01*
X192794000Y-89784072D01*
X193008250Y-89781000D01*
X193167000Y-89622250D01*
X193167000Y-88773000D01*
X193421000Y-88773000D01*
X193421000Y-89622250D01*
X193579750Y-89781000D01*
X193794000Y-89784072D01*
X193918482Y-89771812D01*
X194038180Y-89735502D01*
X194148494Y-89676537D01*
X194245185Y-89597185D01*
X194324537Y-89500494D01*
X194383502Y-89390180D01*
X194419812Y-89270482D01*
X194432072Y-89146000D01*
X194429000Y-88931750D01*
X194270250Y-88773000D01*
X193421000Y-88773000D01*
X193167000Y-88773000D01*
X192317750Y-88773000D01*
X192159000Y-88931750D01*
X192155928Y-89146000D01*
X164522404Y-89146000D01*
X165959844Y-88655614D01*
X167159066Y-88146000D01*
X192155928Y-88146000D01*
X192159000Y-88360250D01*
X192317750Y-88519000D01*
X193167000Y-88519000D01*
X193167000Y-87669750D01*
X193421000Y-87669750D01*
X193421000Y-88519000D01*
X194270250Y-88519000D01*
X194429000Y-88360250D01*
X194432072Y-88146000D01*
X194419812Y-88021518D01*
X194383502Y-87901820D01*
X194324537Y-87791506D01*
X194245185Y-87694815D01*
X194148494Y-87615463D01*
X194038180Y-87556498D01*
X193918482Y-87520188D01*
X193794000Y-87507928D01*
X193579750Y-87511000D01*
X193421000Y-87669750D01*
X193167000Y-87669750D01*
X193008250Y-87511000D01*
X192794000Y-87507928D01*
X192669518Y-87520188D01*
X192549820Y-87556498D01*
X192439506Y-87615463D01*
X192342815Y-87694815D01*
X192263463Y-87791506D01*
X192204498Y-87901820D01*
X192168188Y-88021518D01*
X192155928Y-88146000D01*
X167159066Y-88146000D01*
X168022332Y-87779152D01*
X170015340Y-86754476D01*
X171928234Y-85587053D01*
X173750810Y-84283112D01*
X175473341Y-82849611D01*
X177086639Y-81294196D01*
X177165662Y-81206000D01*
X204836807Y-81206000D01*
X204840001Y-81238429D01*
X204840000Y-94173581D01*
X204836807Y-94206000D01*
X204849550Y-94335383D01*
X204887290Y-94459793D01*
X204948575Y-94574450D01*
X205031052Y-94674948D01*
X205131550Y-94757425D01*
X205246207Y-94818710D01*
X205370617Y-94856450D01*
X205500000Y-94869193D01*
X205532419Y-94866000D01*
X224967581Y-94866000D01*
X225000000Y-94869193D01*
X225032419Y-94866000D01*
X225129383Y-94856450D01*
X225253793Y-94818710D01*
X225368450Y-94757425D01*
X225468948Y-94674948D01*
X225551425Y-94574450D01*
X225612710Y-94459793D01*
X225650450Y-94335383D01*
X225663193Y-94206000D01*
X225660000Y-94173581D01*
X225660000Y-81238419D01*
X225663193Y-81206000D01*
X225650450Y-81076617D01*
X225612710Y-80952207D01*
X225551425Y-80837550D01*
X225468948Y-80737052D01*
X225368450Y-80654575D01*
X225253793Y-80593290D01*
X225129383Y-80555550D01*
X225032419Y-80546000D01*
X225000000Y-80542807D01*
X224967581Y-80546000D01*
X205532419Y-80546000D01*
X205500000Y-80542807D01*
X205467581Y-80546000D01*
X205370617Y-80555550D01*
X205246207Y-80593290D01*
X205131550Y-80654575D01*
X205031052Y-80737052D01*
X204948575Y-80837550D01*
X204887290Y-80952207D01*
X204849550Y-81076617D01*
X204836807Y-81206000D01*
X177165662Y-81206000D01*
X178582094Y-79625168D01*
X179951729Y-77851432D01*
X181188236Y-75982450D01*
X181929486Y-74661682D01*
X183565000Y-74661682D01*
X183565000Y-75338318D01*
X183697006Y-76001952D01*
X183955943Y-76627082D01*
X184331862Y-77189685D01*
X184810315Y-77668138D01*
X185372918Y-78044057D01*
X185998048Y-78302994D01*
X186661682Y-78435000D01*
X187338318Y-78435000D01*
X188001952Y-78302994D01*
X188627082Y-78044057D01*
X189189685Y-77668138D01*
X189668138Y-77189685D01*
X190044057Y-76627082D01*
X190302994Y-76001952D01*
X190435000Y-75338318D01*
X190435000Y-74661682D01*
X190302994Y-73998048D01*
X190044057Y-73372918D01*
X189668138Y-72810315D01*
X189189685Y-72331862D01*
X188627082Y-71955943D01*
X188001952Y-71697006D01*
X187626307Y-71622285D01*
X203165000Y-71622285D01*
X203165000Y-72377715D01*
X203312377Y-73118628D01*
X203601467Y-73816554D01*
X204021161Y-74444670D01*
X204555330Y-74978839D01*
X205183446Y-75398533D01*
X205881372Y-75687623D01*
X206622285Y-75835000D01*
X207377715Y-75835000D01*
X208118628Y-75687623D01*
X208816554Y-75398533D01*
X209444670Y-74978839D01*
X209978839Y-74444670D01*
X210398533Y-73816554D01*
X210687623Y-73118628D01*
X210835000Y-72377715D01*
X210835000Y-71622285D01*
X218165000Y-71622285D01*
X218165000Y-72377715D01*
X218312377Y-73118628D01*
X218601467Y-73816554D01*
X219021161Y-74444670D01*
X219555330Y-74978839D01*
X220183446Y-75398533D01*
X220881372Y-75687623D01*
X221622285Y-75835000D01*
X222377715Y-75835000D01*
X223118628Y-75687623D01*
X223816554Y-75398533D01*
X224444670Y-74978839D01*
X224978839Y-74444670D01*
X225398533Y-73816554D01*
X225687623Y-73118628D01*
X225835000Y-72377715D01*
X225835000Y-71622285D01*
X225687623Y-70881372D01*
X225398533Y-70183446D01*
X224978839Y-69555330D01*
X224444670Y-69021161D01*
X223816554Y-68601467D01*
X223118628Y-68312377D01*
X222377715Y-68165000D01*
X221622285Y-68165000D01*
X220881372Y-68312377D01*
X220183446Y-68601467D01*
X219555330Y-69021161D01*
X219021161Y-69555330D01*
X218601467Y-70183446D01*
X218312377Y-70881372D01*
X218165000Y-71622285D01*
X210835000Y-71622285D01*
X210687623Y-70881372D01*
X210398533Y-70183446D01*
X209978839Y-69555330D01*
X209444670Y-69021161D01*
X208816554Y-68601467D01*
X208118628Y-68312377D01*
X207377715Y-68165000D01*
X206622285Y-68165000D01*
X205881372Y-68312377D01*
X205183446Y-68601467D01*
X204555330Y-69021161D01*
X204021161Y-69555330D01*
X203601467Y-70183446D01*
X203312377Y-70881372D01*
X203165000Y-71622285D01*
X187626307Y-71622285D01*
X187338318Y-71565000D01*
X186661682Y-71565000D01*
X185998048Y-71697006D01*
X185372918Y-71955943D01*
X184810315Y-72331862D01*
X184331862Y-72810315D01*
X183955943Y-73372918D01*
X183697006Y-73998048D01*
X183565000Y-74661682D01*
X181929486Y-74661682D01*
X182285017Y-74028194D01*
X183236221Y-71999093D01*
X184036772Y-69905971D01*
X184682400Y-67759996D01*
X185111137Y-65835331D01*
X205328090Y-65835331D01*
X205328090Y-66164669D01*
X205392340Y-66487678D01*
X205518372Y-66791947D01*
X205701342Y-67065781D01*
X205934219Y-67298658D01*
X206208053Y-67481628D01*
X206512322Y-67607660D01*
X206835331Y-67671910D01*
X207164669Y-67671910D01*
X207487678Y-67607660D01*
X207791947Y-67481628D01*
X208065781Y-67298658D01*
X208298658Y-67065781D01*
X208481628Y-66791947D01*
X208607660Y-66487678D01*
X208671910Y-66164669D01*
X208671910Y-65835331D01*
X220328090Y-65835331D01*
X220328090Y-66164669D01*
X220392340Y-66487678D01*
X220518372Y-66791947D01*
X220701342Y-67065781D01*
X220934219Y-67298658D01*
X221208053Y-67481628D01*
X221512322Y-67607660D01*
X221835331Y-67671910D01*
X222164669Y-67671910D01*
X222487678Y-67607660D01*
X222791947Y-67481628D01*
X223065781Y-67298658D01*
X223298658Y-67065781D01*
X223481628Y-66791947D01*
X223607660Y-66487678D01*
X223671910Y-66164669D01*
X223671910Y-65835331D01*
X223607660Y-65512322D01*
X223481628Y-65208053D01*
X223298658Y-64934219D01*
X223065781Y-64701342D01*
X222791947Y-64518372D01*
X222487678Y-64392340D01*
X222164669Y-64328090D01*
X221835331Y-64328090D01*
X221512322Y-64392340D01*
X221208053Y-64518372D01*
X220934219Y-64701342D01*
X220701342Y-64934219D01*
X220518372Y-65208053D01*
X220392340Y-65512322D01*
X220328090Y-65835331D01*
X208671910Y-65835331D01*
X208607660Y-65512322D01*
X208481628Y-65208053D01*
X208298658Y-64934219D01*
X208065781Y-64701342D01*
X207791947Y-64518372D01*
X207487678Y-64392340D01*
X207164669Y-64328090D01*
X206835331Y-64328090D01*
X206512322Y-64392340D01*
X206208053Y-64518372D01*
X205934219Y-64701342D01*
X205701342Y-64934219D01*
X205518372Y-65208053D01*
X205392340Y-65512322D01*
X205328090Y-65835331D01*
X185111137Y-65835331D01*
X185169659Y-65572619D01*
X185495950Y-63355509D01*
X185659532Y-61120496D01*
X185659532Y-58879504D01*
X185495950Y-56644491D01*
X185169659Y-54427381D01*
X184682400Y-52240004D01*
X184036772Y-50094029D01*
X183809187Y-49498983D01*
X209593163Y-49498983D01*
X209593163Y-50501017D01*
X209777287Y-51485990D01*
X210139263Y-52420359D01*
X210666766Y-53272306D01*
X211341833Y-54012818D01*
X212141473Y-54616679D01*
X213038458Y-55063324D01*
X214002240Y-55337544D01*
X215000000Y-55430000D01*
X215997760Y-55337544D01*
X216961542Y-55063324D01*
X217858527Y-54616679D01*
X218658167Y-54012818D01*
X219333234Y-53272306D01*
X219860737Y-52420359D01*
X220222713Y-51485990D01*
X220406837Y-50501017D01*
X220406837Y-49498983D01*
X220222713Y-48514010D01*
X219860737Y-47579641D01*
X219333234Y-46727694D01*
X218658167Y-45987182D01*
X217858527Y-45383321D01*
X216961542Y-44936676D01*
X215997760Y-44662456D01*
X215000000Y-44570000D01*
X214002240Y-44662456D01*
X213038458Y-44936676D01*
X212141473Y-45383321D01*
X211341833Y-45987182D01*
X210666766Y-46727694D01*
X210139263Y-47579641D01*
X209777287Y-48514010D01*
X209593163Y-49498983D01*
X183809187Y-49498983D01*
X183236221Y-48000907D01*
X182285017Y-45971806D01*
X181188236Y-44017550D01*
X179951729Y-42148568D01*
X178582094Y-40374832D01*
X177086639Y-38705804D01*
X175614334Y-37286323D01*
X212830497Y-37286323D01*
X212830497Y-37713677D01*
X212913870Y-38132821D01*
X213077412Y-38527645D01*
X213314837Y-38882977D01*
X213617023Y-39185163D01*
X213972355Y-39422588D01*
X214367179Y-39586130D01*
X214786323Y-39669503D01*
X215213677Y-39669503D01*
X215632821Y-39586130D01*
X216027645Y-39422588D01*
X216382977Y-39185163D01*
X216685163Y-38882977D01*
X216922588Y-38527645D01*
X217086130Y-38132821D01*
X217169503Y-37713677D01*
X217169503Y-37286323D01*
X217086130Y-36867179D01*
X216922588Y-36472355D01*
X216685163Y-36117023D01*
X216382977Y-35814837D01*
X216027645Y-35577412D01*
X215632821Y-35413870D01*
X215213677Y-35330497D01*
X214786323Y-35330497D01*
X214367179Y-35413870D01*
X213972355Y-35577412D01*
X213617023Y-35814837D01*
X213314837Y-36117023D01*
X213077412Y-36472355D01*
X212913870Y-36867179D01*
X212830497Y-37286323D01*
X175614334Y-37286323D01*
X175473341Y-37150389D01*
X173750810Y-35716888D01*
X171928234Y-34412947D01*
X170015340Y-33245524D01*
X168022332Y-32220848D01*
X165959844Y-31344386D01*
X163838880Y-30620814D01*
X161670758Y-30053992D01*
X159467044Y-29646945D01*
X157239496Y-29401846D01*
X155000000Y-29320000D01*
X152760504Y-29401846D01*
X150532956Y-29646945D01*
X148329242Y-30053992D01*
X146161120Y-30620814D01*
X144040156Y-31344386D01*
X141977668Y-32220848D01*
X139984660Y-33245524D01*
X138071766Y-34412947D01*
X136249190Y-35716888D01*
X134526659Y-37150389D01*
X132913361Y-38705804D01*
X131417906Y-40374832D01*
X130048271Y-42148568D01*
X128811764Y-44017550D01*
X127714983Y-45971806D01*
X126763779Y-48000907D01*
X125963228Y-50094029D01*
X125317600Y-52240004D01*
X124830341Y-54427381D01*
X124504050Y-56644491D01*
X124340468Y-58879504D01*
X124340468Y-61120496D01*
X124504050Y-63355509D01*
X124830341Y-65572619D01*
X125317600Y-67759996D01*
X125963228Y-69905971D01*
X126763779Y-71999093D01*
X126925145Y-72343317D01*
X124142500Y-69560673D01*
X124142500Y-59578297D01*
X124145878Y-59543999D01*
X124142500Y-59509701D01*
X124142500Y-59509691D01*
X124132393Y-59407070D01*
X124092452Y-59275403D01*
X124027592Y-59154058D01*
X124027591Y-59154056D01*
X123962173Y-59074345D01*
X123962167Y-59074339D01*
X123940302Y-59047697D01*
X123913662Y-59025834D01*
X118492072Y-53604245D01*
X118492072Y-52254000D01*
X118479812Y-52129518D01*
X118443502Y-52009820D01*
X118384537Y-51899506D01*
X118305185Y-51802815D01*
X118208494Y-51723463D01*
X118098180Y-51664498D01*
X117978482Y-51628188D01*
X117854000Y-51615928D01*
X117766000Y-51615928D01*
X117766000Y-45081422D01*
X117769686Y-45043999D01*
X117766000Y-45006574D01*
X117754974Y-44894622D01*
X117711402Y-44750985D01*
X117640645Y-44618608D01*
X117545422Y-44502578D01*
X117516353Y-44478722D01*
X114065284Y-41027654D01*
X114041422Y-40998578D01*
X113925392Y-40903355D01*
X113793015Y-40832598D01*
X113649378Y-40789026D01*
X113537426Y-40778000D01*
X113537423Y-40778000D01*
X113500000Y-40774314D01*
X113462577Y-40778000D01*
X113120492Y-40778000D01*
X113052497Y-40676238D01*
X112863762Y-40487503D01*
X112641833Y-40339215D01*
X112474734Y-40270000D01*
X112641833Y-40200785D01*
X112863762Y-40052497D01*
X113052497Y-39863762D01*
X113200785Y-39641833D01*
X113302928Y-39395239D01*
X113355000Y-39133456D01*
X113355000Y-38866544D01*
X113302928Y-38604761D01*
X113200785Y-38358167D01*
X113052497Y-38136238D01*
X112863762Y-37947503D01*
X112641833Y-37799215D01*
X112395239Y-37697072D01*
X112133456Y-37645000D01*
X111866544Y-37645000D01*
X111604761Y-37697072D01*
X111358167Y-37799215D01*
X111136238Y-37947503D01*
X110947503Y-38136238D01*
X110799215Y-38358167D01*
X110697072Y-38604761D01*
X110645000Y-38866544D01*
X85660000Y-38866544D01*
X85660000Y-34866544D01*
X100645000Y-34866544D01*
X100645000Y-35133456D01*
X100697072Y-35395239D01*
X100799215Y-35641833D01*
X100947503Y-35863762D01*
X101136238Y-36052497D01*
X101358167Y-36200785D01*
X101604761Y-36302928D01*
X101866544Y-36355000D01*
X102133456Y-36355000D01*
X102395239Y-36302928D01*
X102641833Y-36200785D01*
X102863762Y-36052497D01*
X102980699Y-35935560D01*
X103784045Y-35935560D01*
X103845932Y-36171368D01*
X104087790Y-36284266D01*
X104347027Y-36347811D01*
X104613680Y-36359561D01*
X104877501Y-36319063D01*
X105128353Y-36227875D01*
X105234068Y-36171368D01*
X105295955Y-35935560D01*
X104540000Y-35179605D01*
X103784045Y-35935560D01*
X102980699Y-35935560D01*
X103052497Y-35863762D01*
X103200785Y-35641833D01*
X103270438Y-35473676D01*
X103312125Y-35588353D01*
X103368632Y-35694068D01*
X103604440Y-35755955D01*
X104360395Y-35000000D01*
X104719605Y-35000000D01*
X105475560Y-35755955D01*
X105711368Y-35694068D01*
X105811764Y-35478993D01*
X105879215Y-35641833D01*
X106027503Y-35863762D01*
X106216238Y-36052497D01*
X106438167Y-36200785D01*
X106684761Y-36302928D01*
X106946544Y-36355000D01*
X107213456Y-36355000D01*
X107475239Y-36302928D01*
X107721833Y-36200785D01*
X107943762Y-36052497D01*
X108132497Y-35863762D01*
X108280785Y-35641833D01*
X108382928Y-35395239D01*
X108435000Y-35133456D01*
X108435000Y-34866544D01*
X108382928Y-34604761D01*
X108280785Y-34358167D01*
X108132497Y-34136238D01*
X107943762Y-33947503D01*
X107942327Y-33946544D01*
X110645000Y-33946544D01*
X110645000Y-34213456D01*
X110697072Y-34475239D01*
X110799215Y-34721833D01*
X110947503Y-34943762D01*
X111136238Y-35132497D01*
X111358167Y-35280785D01*
X111604761Y-35382928D01*
X111866544Y-35435000D01*
X112133456Y-35435000D01*
X112395239Y-35382928D01*
X112641833Y-35280785D01*
X112863762Y-35132497D01*
X113052497Y-34943762D01*
X113200785Y-34721833D01*
X113302928Y-34475239D01*
X113355000Y-34213456D01*
X113355000Y-33946544D01*
X113302928Y-33684761D01*
X113200785Y-33438167D01*
X113052497Y-33216238D01*
X112863762Y-33027503D01*
X112641833Y-32879215D01*
X112473676Y-32809562D01*
X112588353Y-32767875D01*
X112694068Y-32711368D01*
X112755955Y-32475560D01*
X112000000Y-31719605D01*
X111244045Y-32475560D01*
X111305932Y-32711368D01*
X111521007Y-32811764D01*
X111358167Y-32879215D01*
X111136238Y-33027503D01*
X110947503Y-33216238D01*
X110799215Y-33438167D01*
X110697072Y-33684761D01*
X110645000Y-33946544D01*
X107942327Y-33946544D01*
X107721833Y-33799215D01*
X107475239Y-33697072D01*
X107213456Y-33645000D01*
X106946544Y-33645000D01*
X106684761Y-33697072D01*
X106438167Y-33799215D01*
X106216238Y-33947503D01*
X106027503Y-34136238D01*
X105879215Y-34358167D01*
X105809562Y-34526324D01*
X105767875Y-34411647D01*
X105711368Y-34305932D01*
X105475560Y-34244045D01*
X104719605Y-35000000D01*
X104360395Y-35000000D01*
X103604440Y-34244045D01*
X103368632Y-34305932D01*
X103268236Y-34521007D01*
X103200785Y-34358167D01*
X103052497Y-34136238D01*
X102980699Y-34064440D01*
X103784045Y-34064440D01*
X104540000Y-34820395D01*
X105295955Y-34064440D01*
X105234068Y-33828632D01*
X104992210Y-33715734D01*
X104732973Y-33652189D01*
X104466320Y-33640439D01*
X104202499Y-33680937D01*
X103951647Y-33772125D01*
X103845932Y-33828632D01*
X103784045Y-34064440D01*
X102980699Y-34064440D01*
X102863762Y-33947503D01*
X102641833Y-33799215D01*
X102395239Y-33697072D01*
X102133456Y-33645000D01*
X101866544Y-33645000D01*
X101604761Y-33697072D01*
X101358167Y-33799215D01*
X101136238Y-33947503D01*
X100947503Y-34136238D01*
X100799215Y-34358167D01*
X100697072Y-34604761D01*
X100645000Y-34866544D01*
X85660000Y-34866544D01*
X85660000Y-31613680D01*
X110640439Y-31613680D01*
X110680937Y-31877501D01*
X110772125Y-32128353D01*
X110828632Y-32234068D01*
X111064440Y-32295955D01*
X111820395Y-31540000D01*
X112179605Y-31540000D01*
X112935560Y-32295955D01*
X113171368Y-32234068D01*
X113284266Y-31992210D01*
X113347811Y-31732973D01*
X113359561Y-31466320D01*
X113319063Y-31202499D01*
X113227875Y-30951647D01*
X113171368Y-30845932D01*
X112935560Y-30784045D01*
X112179605Y-31540000D01*
X111820395Y-31540000D01*
X111064440Y-30784045D01*
X110828632Y-30845932D01*
X110715734Y-31087790D01*
X110652189Y-31347027D01*
X110640439Y-31613680D01*
X85660000Y-31613680D01*
X85660000Y-28792652D01*
X85941331Y-28980631D01*
X86348075Y-29149110D01*
X86779872Y-29235000D01*
X87220128Y-29235000D01*
X87651925Y-29149110D01*
X88058669Y-28980631D01*
X88229412Y-28866544D01*
X110645000Y-28866544D01*
X110645000Y-29133456D01*
X110697072Y-29395239D01*
X110799215Y-29641833D01*
X110947503Y-29863762D01*
X111136238Y-30052497D01*
X111358167Y-30200785D01*
X111526324Y-30270438D01*
X111411647Y-30312125D01*
X111305932Y-30368632D01*
X111244045Y-30604440D01*
X112000000Y-31360395D01*
X112755955Y-30604440D01*
X112694068Y-30368632D01*
X112478993Y-30268236D01*
X112641833Y-30200785D01*
X112863762Y-30052497D01*
X113052497Y-29863762D01*
X113200785Y-29641833D01*
X113302928Y-29395239D01*
X113355000Y-29133456D01*
X113355000Y-28866544D01*
X113302928Y-28604761D01*
X113200785Y-28358167D01*
X113052497Y-28136238D01*
X112863762Y-27947503D01*
X112641833Y-27799215D01*
X112395239Y-27697072D01*
X112133456Y-27645000D01*
X111866544Y-27645000D01*
X111604761Y-27697072D01*
X111358167Y-27799215D01*
X111136238Y-27947503D01*
X110947503Y-28136238D01*
X110799215Y-28358167D01*
X110697072Y-28604761D01*
X110645000Y-28866544D01*
X88229412Y-28866544D01*
X88424729Y-28736038D01*
X88736038Y-28424729D01*
X88980631Y-28058669D01*
X89149110Y-27651925D01*
X89235000Y-27220128D01*
X89235000Y-26854000D01*
X191969928Y-26854000D01*
X191969928Y-28554000D01*
X191982188Y-28678482D01*
X192018498Y-28798180D01*
X192077463Y-28908494D01*
X192156815Y-29005185D01*
X192253506Y-29084537D01*
X192363820Y-29143502D01*
X192436380Y-29165513D01*
X192304525Y-29297368D01*
X192142010Y-29540589D01*
X192030068Y-29810842D01*
X191973000Y-30097740D01*
X191973000Y-30390260D01*
X192030068Y-30677158D01*
X192142010Y-30947411D01*
X192304525Y-31190632D01*
X192511368Y-31397475D01*
X192754589Y-31559990D01*
X193024842Y-31671932D01*
X193311740Y-31729000D01*
X193604260Y-31729000D01*
X193891158Y-31671932D01*
X194161411Y-31559990D01*
X194404632Y-31397475D01*
X194611475Y-31190632D01*
X194773990Y-30947411D01*
X194885932Y-30677158D01*
X194943000Y-30390260D01*
X194943000Y-30097740D01*
X194885932Y-29810842D01*
X194773990Y-29540589D01*
X194611475Y-29297368D01*
X194479620Y-29165513D01*
X194552180Y-29143502D01*
X194662494Y-29084537D01*
X194759185Y-29005185D01*
X194838537Y-28908494D01*
X194897502Y-28798180D01*
X194933812Y-28678482D01*
X194946072Y-28554000D01*
X194946072Y-26854000D01*
X194933812Y-26729518D01*
X194897502Y-26609820D01*
X194838537Y-26499506D01*
X194759185Y-26402815D01*
X194662494Y-26323463D01*
X194552180Y-26264498D01*
X194432482Y-26228188D01*
X194308000Y-26215928D01*
X192608000Y-26215928D01*
X192483518Y-26228188D01*
X192363820Y-26264498D01*
X192253506Y-26323463D01*
X192156815Y-26402815D01*
X192077463Y-26499506D01*
X192018498Y-26609820D01*
X191982188Y-26729518D01*
X191969928Y-26854000D01*
X89235000Y-26854000D01*
X89235000Y-26779872D01*
X89149110Y-26348075D01*
X88980631Y-25941331D01*
X88792652Y-25660000D01*
X231207348Y-25660000D01*
X231019369Y-25941331D01*
G37*
G04 #@! TD.AperFunction*
M02*
